<svg xmlns="http://www.w3.org/2000/svg" xmlns:xlink="http://www.w3.org/1999/xlink" width="1000" zoomAndPan="magnify" viewBox="0 0 750 187.499995" height="250" preserveAspectRatio="xMidYMid meet" version="1.0"><defs><g/><clipPath id="5dd47c1f15"><path d="M 0.996094 22.628906 L 142.140625 22.628906 L 142.140625 164.003906 L 0.996094 164.003906 Z M 0.996094 22.628906 " clip-rule="nonzero"/></clipPath><clipPath id="160c1affbf"><path d="M 613.289062 33 L 647 33 L 647 140 L 613.289062 140 Z M 613.289062 33 " clip-rule="nonzero"/></clipPath><clipPath id="0f88012fb9"><path d="M 705 33 L 738.207031 33 L 738.207031 140 L 705 140 Z M 705 33 " clip-rule="nonzero"/></clipPath><clipPath id="888a684e00"><path d="M 677 28.675781 L 705 28.675781 L 705 56 L 677 56 Z M 677 28.675781 " clip-rule="nonzero"/></clipPath><clipPath id="b1d97adcf3"><path d="M 647 118 L 675 118 L 675 145.367188 L 647 145.367188 Z M 647 118 " clip-rule="nonzero"/></clipPath><clipPath id="c2b5f1f2e6"><path d="M 567.886719 82.160156 L 605.289062 82.160156 L 605.289062 91.882812 L 567.886719 91.882812 Z M 567.886719 82.160156 " clip-rule="nonzero"/></clipPath><clipPath id="6a3efd788f"><path d="M 142.511719 82.160156 L 179.910156 82.160156 L 179.910156 91.882812 L 142.511719 91.882812 Z M 142.511719 82.160156 " clip-rule="nonzero"/></clipPath></defs><g clip-path="url(#5dd47c1f15)"><path fill="#948bfc" d="M 128.992188 36.136719 C 110.945312 18.089844 81.601562 18.089844 63.550781 36.136719 C 46.054688 53.632812 45.613281 81.871094 62.113281 99.917969 L 52.367188 109.664062 L 47.71875 105.011719 C 45.722656 103.019531 42.511719 103.019531 40.519531 105.011719 L 2.207031 143.324219 C 1.210938 144.320312 0.765625 145.539062 0.765625 146.867188 C 0.765625 148.199219 1.320312 149.527344 2.207031 150.414062 L 14.609375 162.8125 C 15.605469 163.8125 16.824219 164.253906 18.152344 164.253906 C 19.480469 164.253906 20.808594 163.699219 21.695312 162.8125 L 26.898438 157.609375 L 27.011719 157.71875 L 30.109375 154.621094 L 30 154.507812 L 60.007812 124.5 C 62 122.507812 62 119.296875 60.007812 117.304688 L 55.359375 112.652344 L 65.101562 102.910156 C 66.542969 104.238281 68.089844 105.566406 69.753906 106.671875 C 72.632812 108.667969 75.84375 110.4375 79.273438 111.765625 C 83.152344 113.316406 87.136719 114.203125 91.34375 114.644531 C 92.894531 114.867188 94.554688 114.867188 96.105469 114.867188 C 97.765625 114.867188 99.316406 114.757812 100.980469 114.644531 C 105.074219 114.203125 109.171875 113.207031 113.046875 111.765625 C 116.371094 110.4375 119.582031 108.777344 122.570312 106.671875 C 124.785156 105.234375 126.890625 103.460938 128.882812 101.46875 C 147.042969 83.53125 147.042969 54.1875 128.992188 36.136719 Z M 18.816406 159.824219 C 18.59375 160.046875 18.375 160.046875 18.261719 160.046875 C 18.152344 160.046875 17.929688 160.046875 17.710938 159.824219 L 5.308594 147.3125 C 5.085938 147.089844 5.085938 146.867188 5.085938 146.757812 C 5.085938 146.648438 5.085938 146.425781 5.308594 146.203125 L 10.511719 141 L 24.019531 154.507812 Z M 57.019531 121.511719 L 27.011719 151.519531 L 13.5 138.011719 L 43.507812 108.003906 C 43.730469 107.890625 43.953125 107.890625 44.0625 107.890625 C 44.285156 107.890625 44.394531 108.003906 44.617188 108.113281 L 57.019531 120.515625 C 57.351562 120.847656 57.351562 121.289062 57.019531 121.511719 Z M 78.058594 106.5625 C 76.394531 105.789062 74.734375 104.792969 73.296875 103.792969 L 73.296875 74.671875 C 73.296875 74.007812 73.847656 73.453125 74.515625 73.453125 L 76.949219 73.453125 C 77.613281 73.453125 78.167969 74.007812 78.167969 74.671875 L 78.167969 106.5625 Z M 93.890625 110.660156 L 93.890625 53.746094 C 93.890625 53.078125 94.445312 52.527344 95.109375 52.527344 L 97.546875 52.527344 C 98.210938 52.527344 98.765625 53.078125 98.765625 53.746094 L 98.765625 110.660156 C 97.101562 110.769531 95.550781 110.769531 93.890625 110.660156 Z M 119.25 103.792969 C 117.699219 104.792969 116.148438 105.675781 114.488281 106.5625 L 114.488281 74.671875 C 114.488281 74.007812 115.042969 73.453125 115.707031 73.453125 L 118.03125 73.453125 C 118.695312 73.453125 119.25 74.007812 119.25 74.671875 Z M 125.894531 98.480469 C 125.117188 99.253906 124.34375 99.917969 123.566406 100.582031 L 123.566406 74.671875 C 123.566406 71.570312 121.132812 69.136719 118.03125 69.136719 L 115.707031 69.136719 C 112.605469 69.136719 110.167969 71.570312 110.167969 74.671875 L 110.167969 108.335938 C 107.84375 109.109375 105.519531 109.773438 103.082031 110.105469 L 103.082031 53.632812 C 103.082031 50.535156 100.644531 48.097656 97.546875 48.097656 L 95.109375 48.097656 C 92.007812 48.097656 89.574219 50.535156 89.574219 53.632812 L 89.574219 110.105469 C 87.136719 109.664062 84.8125 109.109375 82.488281 108.335938 L 82.488281 74.671875 C 82.488281 71.570312 80.050781 69.136719 76.949219 69.136719 L 74.515625 69.136719 C 71.414062 69.136719 68.976562 71.570312 68.976562 74.671875 L 68.976562 100.582031 C 68.203125 99.917969 67.425781 99.253906 66.652344 98.480469 C 50.375 82.089844 50.375 55.515625 66.652344 39.238281 C 74.847656 31.042969 85.585938 26.949219 96.328125 26.949219 C 107.070312 26.949219 117.699219 31.042969 125.894531 39.238281 C 142.28125 55.515625 142.28125 82.089844 125.894531 98.480469 Z M 125.894531 98.480469 " fill-opacity="1" fill-rule="nonzero"/></g><g clip-path="url(#160c1affbf)"><path fill="#948bfc" d="M 637.46875 72.941406 L 637.46875 49.382812 C 637.46875 46.160156 638.835938 44.417969 642.429688 44.417969 L 646.078125 44.417969 L 646.078125 33.261719 L 638.703125 33.261719 C 632.382812 33.261719 623.824219 37.101562 623.824219 48.140625 L 623.824219 70.460938 C 623.824219 76.660156 618.863281 80.378906 613.90625 80.378906 C 613.671875 80.378906 613.464844 80.429688 613.289062 80.523438 L 613.289062 92.636719 C 613.46875 92.730469 613.671875 92.78125 613.90625 92.78125 C 618.867188 92.78125 623.824219 96.503906 623.824219 102.703125 L 623.824219 125.023438 C 623.824219 136.0625 632.382812 139.90625 638.703125 139.90625 L 646.074219 139.90625 L 646.074219 128.746094 L 642.425781 128.746094 C 638.832031 128.746094 637.464844 127.011719 637.464844 123.785156 L 637.464844 100.226562 C 637.464844 91.546875 631.265625 87.824219 631.265625 87.824219 L 625.066406 86.585938 L 631.265625 85.34375 C 631.265625 85.339844 637.46875 81.625 637.46875 72.941406 Z M 637.46875 72.941406 " fill-opacity="1" fill-rule="nonzero"/></g><g clip-path="url(#0f88012fb9)"><path fill="#948bfc" d="M 714.34375 72.941406 L 714.34375 49.382812 C 714.34375 46.160156 712.976562 44.417969 709.382812 44.417969 L 705.734375 44.417969 L 705.734375 33.261719 L 713.109375 33.261719 C 719.429688 33.261719 727.988281 37.101562 727.988281 48.140625 L 727.988281 70.460938 C 727.988281 76.660156 732.949219 80.378906 737.90625 80.378906 C 738.140625 80.378906 738.347656 80.429688 738.523438 80.523438 L 738.523438 92.636719 C 738.34375 92.730469 738.140625 92.78125 737.90625 92.78125 C 732.945312 92.78125 727.988281 96.503906 727.988281 102.703125 L 727.988281 125.023438 C 727.988281 136.0625 719.429688 139.90625 713.109375 139.90625 L 705.738281 139.90625 L 705.738281 128.746094 L 709.386719 128.746094 C 712.980469 128.746094 714.347656 127.011719 714.347656 123.785156 L 714.347656 100.226562 C 714.347656 91.546875 720.546875 87.824219 720.546875 87.824219 L 726.746094 86.585938 L 720.546875 85.34375 C 720.546875 85.339844 714.34375 81.625 714.34375 72.941406 Z M 714.34375 72.941406 " fill-opacity="1" fill-rule="nonzero"/></g><path fill="#f15a29" d="M 708.183594 89.566406 C 708.277344 88.582031 708.320312 87.582031 708.320312 86.582031 C 708.320312 85.574219 708.273438 84.578125 708.183594 83.59375 L 702.957031 83.207031 C 702.792969 81.859375 702.53125 80.542969 702.175781 79.261719 L 706.863281 76.902344 C 706.265625 74.984375 705.496094 73.140625 704.570312 71.390625 L 699.59375 73.03125 C 698.929688 71.863281 698.179688 70.746094 697.355469 69.695312 L 700.777344 65.71875 C 699.5 64.1875 698.085938 62.773438 696.550781 61.5 L 692.578125 64.921875 C 691.519531 64.097656 690.40625 63.351562 689.238281 62.6875 L 690.882812 57.707031 C 689.132812 56.785156 687.285156 56.011719 685.367188 55.414062 L 683.007812 60.097656 C 681.726562 59.746094 680.410156 59.484375 679.0625 59.320312 L 678.675781 54.089844 C 677.691406 54.003906 676.699219 53.957031 675.691406 53.957031 C 674.683594 53.957031 673.6875 54.003906 672.707031 54.089844 L 672.316406 59.320312 C 670.972656 59.484375 669.652344 59.746094 668.375 60.097656 L 666.015625 55.414062 C 664.089844 56.011719 662.25 56.78125 660.5 57.707031 L 662.140625 62.6875 C 660.96875 63.351562 659.855469 64.097656 658.804688 64.921875 L 654.832031 61.5 C 653.300781 62.773438 651.882812 64.1875 650.605469 65.71875 L 654.03125 69.695312 C 653.207031 70.746094 652.460938 71.863281 651.792969 73.03125 L 646.8125 71.390625 C 645.890625 73.140625 645.121094 74.984375 644.523438 76.902344 L 649.210938 79.261719 C 648.855469 80.542969 648.59375 81.859375 648.429688 83.207031 L 643.203125 83.59375 C 643.113281 84.578125 643.066406 85.578125 643.066406 86.582031 C 643.066406 87.589844 643.113281 88.582031 643.203125 89.566406 L 648.429688 89.953125 C 648.59375 91.300781 648.855469 92.617188 649.210938 93.898438 L 644.523438 96.257812 C 645.121094 98.175781 645.890625 100.023438 646.8125 101.769531 L 651.792969 100.128906 C 652.457031 101.300781 653.207031 102.414062 654.03125 103.46875 L 650.605469 107.441406 C 651.878906 108.972656 653.292969 110.386719 654.832031 111.664062 L 658.804688 108.246094 C 659.859375 109.070312 660.976562 109.816406 662.140625 110.476562 L 660.5 115.460938 C 662.25 116.378906 664.09375 117.152344 666.015625 117.746094 L 668.375 113.0625 C 669.652344 113.414062 670.972656 113.675781 672.316406 113.839844 L 672.707031 119.070312 C 673.6875 119.15625 674.683594 119.207031 675.691406 119.207031 C 676.699219 119.207031 677.691406 119.15625 678.675781 119.070312 L 679.0625 113.839844 C 680.410156 113.675781 681.726562 113.414062 683.007812 113.0625 L 685.367188 117.746094 C 687.285156 117.152344 689.132812 116.378906 690.882812 115.460938 L 689.238281 110.476562 C 690.410156 109.816406 691.527344 109.0625 692.582031 108.238281 L 696.554688 111.664062 C 698.085938 110.390625 699.5 108.976562 700.78125 107.441406 L 697.355469 103.46875 C 698.179688 102.414062 698.925781 101.296875 699.59375 100.128906 L 704.574219 101.769531 C 705.496094 100.023438 706.265625 98.175781 706.863281 96.257812 L 702.175781 93.898438 C 702.53125 92.617188 702.792969 91.300781 702.957031 89.953125 Z M 677.871094 65.933594 C 677.871094 64.964844 678.644531 64.335938 679.597656 64.527344 C 679.597656 64.527344 684.039062 65.433594 686.902344 67.089844 C 689.765625 68.742188 692.777344 72.136719 692.777344 72.136719 C 693.421875 72.863281 693.261719 73.847656 692.417969 74.332031 L 689.324219 76.113281 C 688.488281 76.597656 687.257812 76.417969 686.589844 75.722656 C 686.589844 75.722656 685.132812 74.195312 683.378906 73.183594 C 681.625 72.167969 679.578125 71.675781 679.578125 71.675781 C 678.636719 71.449219 677.867188 70.46875 677.867188 69.503906 L 677.867188 65.933594 Z M 658.390625 72.136719 C 658.390625 72.136719 661.402344 68.742188 664.265625 67.089844 C 667.128906 65.4375 671.570312 64.527344 671.570312 64.527344 C 672.523438 64.335938 673.296875 64.964844 673.296875 65.933594 L 673.296875 69.503906 C 673.296875 70.472656 672.527344 71.449219 671.585938 71.675781 C 671.585938 71.675781 669.535156 72.167969 667.78125 73.183594 C 666.027344 74.195312 664.574219 75.722656 664.574219 75.722656 C 663.90625 76.425781 662.675781 76.597656 661.835938 76.117188 L 658.75 74.335938 C 657.914062 73.851562 657.753906 72.863281 658.390625 72.136719 Z M 654.378906 94.300781 C 654.378906 94.300781 652.945312 89.996094 652.945312 86.691406 C 652.945312 83.382812 654.378906 79.085938 654.378906 79.085938 C 654.683594 78.167969 655.621094 77.808594 656.457031 78.292969 L 659.550781 80.078125 C 660.386719 80.5625 660.847656 81.714844 660.578125 82.644531 C 660.578125 82.644531 659.980469 84.667969 659.980469 86.691406 C 659.980469 88.71875 660.578125 90.738281 660.578125 90.738281 C 660.847656 91.667969 660.386719 92.820312 659.550781 93.304688 L 656.457031 95.089844 C 655.625 95.574219 654.691406 95.21875 654.378906 94.300781 Z M 673.296875 107.449219 C 673.296875 108.417969 672.523438 109.050781 671.570312 108.855469 C 671.570312 108.855469 667.128906 107.945312 664.265625 106.292969 C 661.402344 104.640625 658.390625 101.246094 658.390625 101.246094 C 657.753906 100.519531 657.914062 99.539062 658.75 99.050781 L 661.84375 97.269531 C 662.679688 96.785156 663.910156 96.964844 664.578125 97.660156 C 664.578125 97.660156 666.035156 99.1875 667.789062 100.199219 C 669.542969 101.214844 671.589844 101.707031 671.589844 101.707031 C 672.53125 101.9375 673.300781 102.914062 673.300781 103.882812 L 673.300781 107.449219 Z M 675.578125 94.847656 C 671.074219 94.847656 667.425781 91.191406 667.425781 86.691406 C 667.425781 82.191406 671.078125 78.535156 675.578125 78.535156 C 680.082031 78.535156 683.734375 82.191406 683.734375 86.691406 C 683.734375 91.191406 680.085938 94.847656 675.578125 94.847656 Z M 692.769531 101.246094 C 692.769531 101.246094 689.761719 104.640625 686.898438 106.292969 C 684.035156 107.945312 679.589844 108.855469 679.589844 108.855469 C 678.640625 109.050781 677.867188 108.414062 677.867188 107.449219 L 677.867188 103.878906 C 677.867188 102.910156 678.636719 101.9375 679.578125 101.707031 C 679.578125 101.707031 681.625 101.214844 683.375 100.199219 C 685.128906 99.1875 686.582031 97.660156 686.582031 97.660156 C 687.25 96.960938 688.484375 96.785156 689.320312 97.269531 L 692.414062 99.050781 C 693.25 99.539062 693.410156 100.519531 692.769531 101.246094 Z M 696.78125 94.300781 C 696.476562 95.214844 695.542969 95.574219 694.703125 95.089844 L 691.613281 93.304688 C 690.773438 92.820312 690.3125 91.667969 690.585938 90.738281 C 690.585938 90.738281 691.179688 88.71875 691.179688 86.691406 C 691.179688 84.667969 690.585938 82.644531 690.585938 82.644531 C 690.308594 81.714844 690.773438 80.5625 691.613281 80.078125 L 694.703125 78.292969 C 695.542969 77.808594 696.476562 78.164062 696.78125 79.085938 C 696.78125 79.085938 698.21875 83.386719 698.21875 86.691406 C 698.210938 90 696.78125 94.300781 696.78125 94.300781 Z M 696.78125 94.300781 " fill-opacity="1" fill-rule="evenodd"/><g clip-path="url(#888a684e00)"><path fill="#545454" d="M 704.34375 43.144531 C 704.378906 42.746094 704.398438 42.339844 704.398438 41.933594 C 704.398438 41.527344 704.378906 41.121094 704.34375 40.722656 L 702.21875 40.566406 C 702.152344 40.019531 702.046875 39.488281 701.90625 38.96875 L 703.804688 38.007812 C 703.5625 37.230469 703.25 36.484375 702.875 35.769531 L 700.851562 36.4375 C 700.582031 35.964844 700.28125 35.511719 699.945312 35.082031 L 701.335938 33.46875 C 700.820312 32.847656 700.246094 32.273438 699.621094 31.753906 L 698.007812 33.144531 C 697.582031 32.808594 697.128906 32.503906 696.652344 32.238281 L 697.320312 30.21875 C 696.609375 29.84375 695.863281 29.527344 695.082031 29.285156 L 694.121094 31.1875 C 693.605469 31.039062 693.070312 30.9375 692.523438 30.871094 L 692.367188 28.75 C 691.972656 28.710938 691.5625 28.691406 691.15625 28.691406 C 690.75 28.691406 690.34375 28.710938 689.945312 28.75 L 689.789062 30.871094 C 689.242188 30.9375 688.710938 31.046875 688.191406 31.1875 L 687.234375 29.285156 C 686.453125 29.527344 685.707031 29.839844 684.992188 30.21875 L 685.664062 32.238281 C 685.1875 32.507812 684.738281 32.808594 684.304688 33.144531 L 682.691406 31.753906 C 682.070312 32.273438 681.496094 32.84375 680.976562 33.46875 L 682.367188 35.082031 C 682.035156 35.507812 681.726562 35.964844 681.460938 36.4375 L 679.441406 35.769531 C 679.066406 36.484375 678.753906 37.230469 678.511719 38.007812 L 680.410156 38.96875 C 680.265625 39.488281 680.164062 40.019531 680.09375 40.566406 L 677.972656 40.722656 C 677.9375 41.121094 677.914062 41.527344 677.914062 41.933594 C 677.914062 42.339844 677.933594 42.746094 677.96875 43.144531 L 680.089844 43.300781 C 680.15625 43.847656 680.265625 44.378906 680.40625 44.898438 L 678.503906 45.859375 C 678.746094 46.640625 679.058594 47.386719 679.4375 48.097656 L 681.457031 47.429688 C 681.726562 47.902344 682.027344 48.355469 682.363281 48.785156 L 680.972656 50.398438 C 681.492188 51.019531 682.0625 51.59375 682.6875 52.113281 L 684.300781 50.722656 C 684.726562 51.058594 685.183594 51.363281 685.65625 51.628906 L 684.988281 53.648438 C 685.703125 54.023438 686.449219 54.339844 687.226562 54.582031 L 688.1875 52.679688 C 688.707031 52.828125 689.238281 52.929688 689.785156 52.996094 L 689.941406 55.117188 C 690.339844 55.152344 690.746094 55.175781 691.152344 55.175781 C 691.558594 55.175781 691.964844 55.15625 692.363281 55.117188 L 692.519531 52.996094 C 693.066406 52.929688 693.597656 52.820312 694.117188 52.679688 L 695.078125 54.582031 C 695.859375 54.339844 696.605469 54.027344 697.316406 53.648438 L 696.648438 51.628906 C 697.121094 51.359375 697.574219 51.058594 698.003906 50.722656 L 699.617188 52.113281 C 700.238281 51.59375 700.816406 51.023438 701.332031 50.398438 L 699.941406 48.785156 C 700.277344 48.359375 700.582031 47.902344 700.847656 47.429688 L 702.867188 48.097656 C 703.242188 47.386719 703.558594 46.640625 703.800781 45.859375 L 701.898438 44.898438 C 702.046875 44.378906 702.152344 43.847656 702.214844 43.300781 Z M 691.152344 49.433594 C 687.007812 49.433594 683.648438 46.078125 683.648438 41.929688 C 683.648438 37.785156 687.003906 34.421875 691.152344 34.421875 C 695.296875 34.421875 698.660156 37.78125 698.660156 41.929688 C 698.660156 46.078125 695.300781 49.433594 691.152344 49.433594 Z M 691.152344 49.433594 " fill-opacity="1" fill-rule="evenodd"/></g><g clip-path="url(#b1d97adcf3)"><path fill="#545454" d="M 674.371094 133.265625 C 674.410156 132.871094 674.429688 132.460938 674.429688 132.054688 C 674.429688 131.648438 674.410156 131.242188 674.371094 130.84375 L 672.25 130.6875 C 672.183594 130.140625 672.074219 129.609375 671.933594 129.089844 L 673.835938 128.128906 C 673.59375 127.351562 673.28125 126.605469 672.902344 125.890625 L 670.882812 126.5625 C 670.613281 126.085938 670.3125 125.636719 669.976562 125.203125 L 671.367188 123.589844 C 670.851562 122.96875 670.277344 122.394531 669.652344 121.875 L 668.039062 123.265625 C 667.613281 122.929688 667.15625 122.625 666.683594 122.359375 L 667.351562 120.339844 C 666.640625 119.964844 665.894531 119.652344 665.113281 119.410156 L 664.152344 121.308594 C 663.636719 121.164062 663.101562 121.0625 662.554688 120.992188 L 662.398438 118.871094 C 662 118.832031 661.59375 118.8125 661.1875 118.8125 C 660.78125 118.8125 660.375 118.832031 659.976562 118.871094 L 659.820312 120.992188 C 659.273438 121.0625 658.742188 121.167969 658.222656 121.308594 L 657.261719 119.410156 C 656.484375 119.652344 655.738281 119.960938 655.023438 120.339844 L 655.6875 122.355469 C 655.214844 122.625 654.761719 122.925781 654.332031 123.261719 L 652.71875 121.871094 C 652.097656 122.390625 651.519531 122.960938 651.003906 123.585938 L 652.394531 125.199219 C 652.058594 125.625 651.753906 126.082031 651.488281 126.554688 L 649.464844 125.886719 C 649.09375 126.597656 648.777344 127.34375 648.535156 128.125 L 650.4375 129.085938 C 650.289062 129.605469 650.1875 130.136719 650.121094 130.683594 L 648 130.839844 C 647.964844 131.238281 647.941406 131.644531 647.941406 132.050781 C 647.941406 132.457031 647.960938 132.863281 647.992188 133.261719 L 650.117188 133.417969 C 650.183594 133.964844 650.289062 134.496094 650.429688 135.015625 L 648.53125 135.976562 C 648.773438 136.753906 649.082031 137.5 649.460938 138.214844 L 651.480469 137.546875 C 651.753906 138.019531 652.054688 138.472656 652.386719 138.902344 L 650.996094 140.515625 C 651.515625 141.136719 652.089844 141.710938 652.714844 142.230469 L 654.328125 140.839844 C 654.753906 141.175781 655.207031 141.480469 655.683594 141.746094 L 655.015625 143.765625 C 655.726562 144.140625 656.472656 144.457031 657.253906 144.699219 L 658.210938 142.796875 C 658.730469 142.945312 659.265625 143.046875 659.8125 143.113281 L 659.964844 145.234375 C 660.363281 145.269531 660.769531 145.292969 661.179688 145.292969 C 661.585938 145.292969 661.992188 145.273438 662.390625 145.234375 L 662.542969 143.113281 C 663.09375 143.046875 663.625 142.9375 664.144531 142.796875 L 665.101562 144.699219 C 665.882812 144.457031 666.628906 144.144531 667.339844 143.765625 L 666.671875 141.746094 C 667.148438 141.476562 667.597656 141.175781 668.03125 140.839844 L 669.644531 142.230469 C 670.261719 141.710938 670.839844 141.140625 671.359375 140.515625 L 669.96875 138.902344 C 670.300781 138.476562 670.609375 138.019531 670.875 137.546875 L 672.894531 138.214844 C 673.269531 137.5 673.582031 136.753906 673.824219 135.976562 L 671.925781 135.015625 C 672.070312 134.496094 672.175781 133.960938 672.242188 133.417969 Z M 661.1875 139.554688 C 657.042969 139.554688 653.683594 136.199219 653.683594 132.050781 C 653.683594 127.90625 657.039062 124.546875 661.1875 124.546875 C 665.332031 124.546875 668.695312 127.902344 668.695312 132.050781 C 668.6875 136.199219 665.332031 139.554688 661.1875 139.554688 Z M 661.1875 139.554688 " fill-opacity="1" fill-rule="evenodd"/></g><g clip-path="url(#c2b5f1f2e6)"><path fill="#383f84" d="M 568.597656 83.464844 C 568.527344 83.003906 568.527344 83 569.019531 82.996094 C 571.109375 82.960938 573.203125 82.933594 575.296875 82.894531 C 577.960938 82.839844 580.628906 82.773438 583.292969 82.710938 C 585.792969 82.652344 588.289062 82.59375 590.789062 82.53125 C 594.386719 82.445312 597.984375 82.351562 601.582031 82.257812 C 602.242188 82.238281 602.90625 82.191406 603.566406 82.175781 C 604.210938 82.15625 604.601562 82.589844 604.980469 83.019531 C 605.039062 83.085938 605.058594 83.210938 605.058594 83.3125 C 605.101562 85.695312 605.136719 88.074219 605.175781 90.457031 C 605.183594 90.949219 605.183594 90.945312 604.679688 90.953125 C 601.5625 91.011719 598.445312 91.074219 595.328125 91.136719 C 592.574219 91.195312 589.816406 91.253906 587.0625 91.316406 C 584.382812 91.375 581.703125 91.433594 579.023438 91.5 C 577.007812 91.554688 574.992188 91.613281 572.976562 91.679688 C 571.847656 91.71875 570.71875 91.769531 569.59375 91.832031 C 568.726562 91.878906 568.023438 91.246094 568.019531 90.394531 C 568.011719 88.265625 568.003906 86.140625 567.996094 84.015625 C 567.992188 83.910156 567.996094 83.804688 568.003906 83.699219 C 568.023438 83.175781 568.0625 83.15625 568.597656 83.441406 C 568.648438 83.460938 568.660156 83.453125 568.671875 83.445312 C 568.644531 83.449219 568.621094 83.457031 568.597656 83.464844 Z M 569.238281 89.753906 C 569.277344 90.839844 569.277344 90.839844 570.386719 90.765625 C 570.679688 90.765625 570.972656 90.761719 571.347656 90.761719 C 571.515625 90.765625 571.679688 90.773438 571.847656 90.769531 C 574.316406 90.734375 576.785156 90.695312 579.335938 90.667969 C 579.632812 90.644531 579.933594 90.601562 580.230469 90.59375 C 581.523438 90.558594 582.816406 90.53125 584.105469 90.5 C 585.1875 90.472656 586.269531 90.441406 587.351562 90.410156 C 588.523438 90.378906 589.695312 90.351562 590.867188 90.320312 C 591.992188 90.289062 593.121094 90.253906 594.246094 90.230469 C 595.886719 90.195312 597.523438 90.167969 599.164062 90.136719 C 600.621094 90.105469 602.078125 90.070312 603.539062 90.050781 C 603.824219 90.050781 603.894531 89.945312 603.890625 89.679688 C 603.851562 87.738281 603.824219 85.792969 603.785156 83.851562 C 603.785156 83.75 603.734375 83.652344 603.714844 83.46875 C 603.738281 83.175781 603.523438 83.261719 603.378906 83.261719 C 602.359375 83.265625 601.339844 83.277344 600.253906 83.273438 C 600.171875 83.289062 600.089844 83.304688 599.925781 83.335938 C 596.1875 83.40625 592.449219 83.472656 588.628906 83.535156 C 588.316406 83.5625 588.007812 83.605469 587.695312 83.613281 C 586.449219 83.652344 585.203125 83.675781 583.960938 83.707031 C 582.730469 83.738281 581.5 83.769531 580.269531 83.796875 C 579.027344 83.828125 577.78125 83.859375 576.539062 83.886719 C 575.234375 83.917969 573.929688 83.957031 572.625 83.976562 C 571.601562 83.992188 570.578125 83.980469 569.492188 83.96875 C 569.453125 83.945312 569.414062 83.925781 569.378906 83.902344 C 569.203125 83.796875 569.03125 83.6875 568.859375 83.582031 C 568.902344 83.769531 568.945312 83.960938 568.980469 84.234375 C 569.011719 85 569.039062 85.765625 569.078125 86.527344 C 569.113281 87.261719 569.15625 87.996094 569.207031 88.757812 C 569.210938 88.785156 569.203125 88.800781 569.171875 88.902344 C 569.1875 89.15625 569.207031 89.414062 569.238281 89.753906 Z M 569.238281 89.753906 " fill-opacity="1" fill-rule="nonzero"/></g><path fill="#404ba6" d="M 571.269531 90.757812 C 570.972656 90.761719 570.679688 90.765625 570.324219 90.738281 C 570.175781 90.65625 570.089844 90.597656 570 90.542969 C 569.535156 90.269531 569.277344 89.898438 569.363281 89.328125 C 569.386719 89.167969 569.351562 88.996094 569.328125 88.835938 C 569.320312 88.792969 569.242188 88.761719 569.195312 88.726562 C 569.15625 87.996094 569.109375 87.261719 569.078125 86.527344 C 569.039062 85.761719 569.011719 85 569.019531 84.195312 C 569.222656 84.097656 569.390625 84.039062 569.554688 83.980469 C 570.578125 83.980469 571.601562 83.988281 572.625 83.972656 C 573.929688 83.957031 575.234375 83.917969 576.539062 83.886719 C 577.78125 83.855469 579.027344 83.824219 580.273438 83.796875 C 581.5 83.765625 582.730469 83.734375 583.960938 83.703125 C 585.203125 83.675781 586.449219 83.648438 587.695312 83.613281 C 588.007812 83.601562 588.320312 83.5625 588.703125 83.554688 C 589.597656 83.589844 590.425781 83.621094 591.253906 83.613281 C 593.824219 83.589844 596.398438 83.5625 598.96875 83.519531 C 599.480469 83.511719 599.988281 83.460938 600.492188 83.386719 C 601.207031 83.28125 601.898438 83.28125 602.542969 83.65625 C 602.726562 83.765625 602.894531 83.9375 602.933594 83.53125 C 602.941406 83.457031 603.179688 83.355469 603.304688 83.359375 C 603.441406 83.367188 603.574219 83.480469 603.710938 83.546875 C 603.734375 83.648438 603.785156 83.746094 603.785156 83.847656 C 603.824219 85.789062 603.851562 87.730469 603.890625 89.675781 C 603.894531 89.941406 603.824219 90.046875 603.539062 90.046875 C 602.078125 90.066406 600.621094 90.105469 599.164062 90.132812 C 597.523438 90.164062 595.886719 90.191406 594.246094 90.226562 C 593.121094 90.25 591.992188 90.285156 590.867188 90.316406 C 589.695312 90.347656 588.523438 90.375 587.351562 90.40625 C 586.269531 90.4375 585.1875 90.46875 584.105469 90.496094 C 582.8125 90.53125 581.523438 90.554688 580.230469 90.589844 C 579.933594 90.597656 579.632812 90.640625 579.261719 90.648438 C 577.765625 90.554688 576.339844 90.457031 574.914062 90.414062 C 573.6875 90.378906 572.460938 90.429688 571.269531 90.757812 Z M 569.421875 85.382812 C 569.402344 85.382812 569.386719 85.382812 569.367188 85.382812 C 569.367188 85.398438 569.367188 85.417969 569.375 85.417969 C 569.394531 85.421875 569.414062 85.421875 569.40625 85.488281 C 569.542969 85.851562 569.664062 86.222656 569.824219 86.574219 C 569.867188 86.671875 570.035156 86.761719 570.148438 86.765625 C 570.414062 86.769531 570.683594 86.722656 570.945312 86.695312 C 571.003906 86.6875 571.0625 86.675781 571.117188 86.667969 C 571.078125 86.613281 571.046875 86.542969 570.996094 86.503906 C 570.476562 86.144531 569.953125 85.789062 569.421875 85.382812 Z M 576.082031 87.421875 C 575.527344 87.449219 574.96875 87.464844 574.414062 87.515625 C 573.148438 87.632812 571.882812 87.765625 570.617188 87.898438 C 570.523438 87.910156 570.347656 87.988281 570.351562 88.011719 C 570.394531 88.292969 570.449219 88.578125 570.550781 88.839844 C 570.570312 88.890625 570.824219 88.871094 570.960938 88.84375 C 573.210938 88.433594 575.460938 88.015625 577.710938 87.597656 C 577.753906 87.589844 577.796875 87.578125 577.839844 87.570312 C 577.792969 87.546875 577.746094 87.511719 577.695312 87.507812 C 577.1875 87.476562 576.679688 87.449219 576.082031 87.421875 Z M 588.917969 85.25 C 585.96875 85.265625 583.019531 85.15625 580.078125 85.425781 C 578.945312 85.527344 577.808594 85.617188 576.671875 85.714844 C 576.625 85.71875 576.582031 85.730469 576.535156 85.738281 C 576.578125 85.753906 576.621094 85.773438 576.664062 85.777344 C 577.082031 85.8125 577.503906 85.894531 577.921875 85.875 C 579.792969 85.773438 581.664062 85.585938 583.539062 85.542969 C 586.09375 85.480469 588.648438 85.515625 591.207031 85.515625 C 591.835938 85.515625 592.46875 85.527344 593.101562 85.53125 C 593.15625 85.53125 593.214844 85.5 593.269531 85.484375 C 593.214844 85.464844 593.160156 85.4375 593.105469 85.433594 C 591.738281 85.371094 590.371094 85.308594 588.917969 85.25 Z M 578.785156 88.871094 C 579.632812 88.777344 580.480469 88.679688 581.332031 88.601562 C 582.433594 88.5 583.539062 88.414062 584.644531 88.320312 C 584.6875 88.316406 584.730469 88.296875 584.773438 88.289062 C 584.730469 88.273438 584.683594 88.242188 584.640625 88.246094 C 583.375 88.289062 582.117188 87.980469 580.835938 88.21875 C 579.191406 88.523438 577.53125 88.734375 575.875 88.988281 C 575.71875 89.011719 575.566406 89.066406 575.410156 89.105469 C 575.582031 89.113281 575.757812 89.144531 575.929688 89.132812 C 576.855469 89.050781 577.777344 88.957031 578.785156 88.871094 Z M 599.765625 89.140625 C 599.871094 89.140625 599.976562 89.140625 600.082031 89.140625 C 600.878906 89.167969 601.675781 89.199219 602.476562 89.226562 C 602.535156 89.226562 602.59375 89.214844 602.652344 89.210938 C 602.605469 89.191406 602.5625 89.15625 602.511719 89.148438 C 601.667969 89.023438 600.824219 88.8125 599.976562 88.796875 C 598.035156 88.769531 596.097656 88.839844 594.15625 88.871094 C 594.085938 88.871094 594.019531 88.902344 593.949219 88.917969 C 594.023438 88.929688 594.09375 88.953125 594.167969 88.957031 C 596.003906 89.019531 597.839844 89.082031 599.765625 89.140625 Z M 602.808594 88.0625 C 602.804688 87.898438 602.789062 87.730469 602.792969 87.566406 C 602.796875 87.402344 602.75 87.367188 602.585938 87.40625 C 601.785156 87.59375 600.984375 87.765625 600.183594 87.945312 C 600.09375 87.964844 600.011719 88 599.925781 88.03125 C 600.007812 88.0625 600.085938 88.117188 600.171875 88.128906 C 600.941406 88.257812 601.710938 88.371094 602.476562 88.503906 C 602.808594 88.5625 602.871094 88.417969 602.808594 88.0625 Z M 583.707031 89.414062 C 583.304688 89.460938 582.90625 89.507812 582.507812 89.554688 C 582.90625 89.578125 583.308594 89.601562 583.707031 89.625 C 583.75 89.625 583.796875 89.621094 583.839844 89.621094 C 583.820312 89.554688 583.796875 89.484375 583.707031 89.414062 Z M 602.410156 85.257812 C 602.394531 85.269531 602.382812 85.285156 602.371094 85.300781 C 602.371094 85.304688 602.386719 85.324219 602.398438 85.328125 C 602.519531 85.355469 602.636719 85.382812 602.757812 85.40625 C 602.761719 85.40625 602.777344 85.332031 602.777344 85.332031 C 602.675781 85.300781 602.570312 85.277344 602.410156 85.257812 Z M 602.410156 85.257812 " fill-opacity="1" fill-rule="nonzero"/><path fill="#404ba6" d="M 569.175781 88.859375 C 569.199219 89.074219 569.21875 89.332031 569.230469 89.628906 C 569.207031 89.414062 569.1875 89.15625 569.175781 88.859375 Z M 569.175781 88.859375 " fill-opacity="1" fill-rule="nonzero"/><path fill="#404ba6" d="M 600.289062 83.277344 C 600.238281 83.300781 600.15625 83.316406 600.042969 83.328125 C 600.089844 83.304688 600.171875 83.289062 600.289062 83.277344 Z M 600.289062 83.277344 " fill-opacity="1" fill-rule="nonzero"/><g fill="#000000" fill-opacity="0.4"><g transform="translate(191.560386, 111.378797)"><g><path d="M 41.59375 0 L 24.03125 0 L 22.96875 -11.9375 L 9.078125 -11.9375 L 3.75 0 L -3.53125 0 L 18.625 -47.671875 L 36.40625 -47.671875 Z M 11.5625 -17.421875 L 22.453125 -17.421875 L 20.71875 -37.84375 Z M 11.5625 -17.421875 "/></g></g></g><g fill="#000000" fill-opacity="0.4"><g transform="translate(236.752118, 111.378797)"><g><path d="M 14.5625 0 L -0.75 0 L 9.90625 -50.453125 L 25.296875 -50.453125 Z M 14.5625 0 "/></g></g></g><g fill="#000000" fill-opacity="0.4"><g transform="translate(258.747424, 111.378797)"><g><path d="M 11.859375 12.609375 L -3.453125 12.609375 L 6 -32.28125 L 18.25 -32.28125 L 19.59375 -27.484375 L 20.046875 -27.484375 C 21.847656 -29.378906 23.863281 -30.738281 26.09375 -31.5625 C 28.320312 -32.394531 30.507812 -32.8125 32.65625 -32.8125 C 34.40625 -32.8125 35.867188 -32.546875 37.046875 -32.015625 C 38.222656 -31.492188 39.160156 -30.78125 39.859375 -29.875 C 40.566406 -28.976562 41.066406 -27.90625 41.359375 -26.65625 C 41.660156 -25.40625 41.8125 -24.078125 41.8125 -22.671875 C 41.8125 -21.972656 41.757812 -20.921875 41.65625 -19.515625 C 41.5625 -18.117188 41.335938 -16.554688 40.984375 -14.828125 C 40.640625 -13.097656 40.140625 -11.316406 39.484375 -9.484375 C 38.835938 -7.660156 37.972656 -6 36.890625 -4.5 C 35.816406 -3 34.46875 -1.773438 32.84375 -0.828125 C 31.21875 0.117188 29.28125 0.59375 27.03125 0.59375 C 25.78125 0.59375 24.566406 0.441406 23.390625 0.140625 C 22.210938 -0.148438 21.144531 -0.546875 20.1875 -1.046875 C 19.238281 -1.546875 18.398438 -2.132812 17.671875 -2.8125 C 16.953125 -3.488281 16.414062 -4.175781 16.0625 -4.875 L 15.609375 -4.875 Z M 19.828125 -6.6875 C 21.023438 -6.6875 22.023438 -7.320312 22.828125 -8.59375 C 23.628906 -9.875 24.28125 -11.375 24.78125 -13.09375 C 25.28125 -14.820312 25.640625 -16.550781 25.859375 -18.28125 C 26.085938 -20.007812 26.203125 -21.296875 26.203125 -22.140625 C 26.203125 -23.148438 26.035156 -23.976562 25.703125 -24.625 C 25.378906 -25.28125 24.796875 -25.609375 23.953125 -25.609375 C 22.992188 -25.609375 22.085938 -25.269531 21.234375 -24.59375 C 20.390625 -23.914062 19.769531 -23.328125 19.375 -22.828125 L 16.4375 -9.078125 C 16.84375 -8.535156 17.316406 -8 17.859375 -7.46875 C 18.410156 -6.945312 19.066406 -6.6875 19.828125 -6.6875 Z M 19.828125 -6.6875 "/></g></g></g><g fill="#000000" fill-opacity="0.4"><g transform="translate(302.587903, 111.378797)"><g><path d="M 20.421875 -27.484375 L 20.953125 -27.484375 C 21.898438 -28.429688 23 -29.304688 24.25 -30.109375 C 25.300781 -30.804688 26.550781 -31.429688 28 -31.984375 C 29.457031 -32.535156 31.085938 -32.8125 32.890625 -32.8125 C 35.484375 -32.8125 37.628906 -32.144531 39.328125 -30.8125 C 41.035156 -29.488281 41.890625 -27.675781 41.890625 -25.375 C 41.890625 -24.675781 41.8125 -23.890625 41.65625 -23.015625 C 41.507812 -22.140625 41.335938 -21.210938 41.140625 -20.234375 C 40.941406 -19.253906 40.726562 -18.273438 40.5 -17.296875 C 40.28125 -16.328125 40.09375 -15.441406 39.9375 -14.640625 L 36.78125 0 L 21.546875 0 L 25.671875 -19.59375 C 25.773438 -20.25 25.898438 -20.910156 26.046875 -21.578125 C 26.203125 -22.253906 26.28125 -22.867188 26.28125 -23.421875 C 26.28125 -24.171875 26.09375 -24.785156 25.71875 -25.265625 C 25.34375 -25.742188 24.78125 -25.984375 24.03125 -25.984375 C 23.125 -25.984375 22.257812 -25.65625 21.4375 -25 C 20.613281 -24.351562 19.972656 -23.78125 19.515625 -23.28125 L 14.5625 0 L -0.75 0 L 9.90625 -50.453125 L 25.296875 -50.453125 Z M 20.421875 -27.484375 "/></g></g></g><g fill="#000000" fill-opacity="0.4"><g transform="translate(346.578523, 111.378797)"><g><path d="M 5.40625 -29.5 C 7.957031 -30.75 10.570312 -31.660156 13.25 -32.234375 C 15.925781 -32.816406 18.914062 -33.109375 22.21875 -33.109375 C 25.425781 -33.109375 28.078125 -32.859375 30.171875 -32.359375 C 32.273438 -31.859375 33.953125 -31.128906 35.203125 -30.171875 C 36.460938 -29.222656 37.34375 -28.097656 37.84375 -26.796875 C 38.34375 -25.492188 38.59375 -24.019531 38.59375 -22.375 C 38.59375 -21.425781 38.53125 -20.398438 38.40625 -19.296875 C 38.28125 -18.191406 38.140625 -17.265625 37.984375 -16.515625 L 34.453125 0 L 22.375 0 L 21.015625 -4.8125 L 20.578125 -4.8125 C 18.972656 -3.050781 17.101562 -1.707031 14.96875 -0.78125 C 12.84375 0.132812 10.734375 0.59375 8.640625 0.59375 C 7.429688 0.59375 6.25 0.414062 5.09375 0.0625 C 3.945312 -0.28125 2.921875 -0.8125 2.015625 -1.53125 C 1.117188 -2.257812 0.398438 -3.1875 -0.140625 -4.3125 C -0.691406 -5.4375 -0.96875 -6.800781 -0.96875 -8.40625 C -0.96875 -11.007812 -0.257812 -13.070312 1.15625 -14.59375 C 2.582031 -16.125 4.457031 -17.273438 6.78125 -18.046875 C 9.113281 -18.828125 11.742188 -19.316406 14.671875 -19.515625 C 17.597656 -19.722656 20.539062 -19.828125 23.5 -19.828125 C 23.601562 -20.328125 23.726562 -21.035156 23.875 -21.953125 C 24.019531 -22.878906 24.09375 -23.695312 24.09375 -24.40625 C 24.09375 -25.300781 23.851562 -26.132812 23.375 -26.90625 C 22.90625 -27.6875 21.921875 -28.078125 20.421875 -28.078125 C 18.671875 -28.078125 17.378906 -27.5625 16.546875 -26.53125 C 15.722656 -25.507812 15.1875 -24.273438 14.9375 -22.828125 L 3.984375 -22.828125 Z M 22.671875 -16.296875 L 21.328125 -16.296875 C 19.867188 -16.296875 18.625 -16.109375 17.59375 -15.734375 C 16.570312 -15.359375 15.75 -14.867188 15.125 -14.265625 C 14.5 -13.660156 14.035156 -12.984375 13.734375 -12.234375 C 13.429688 -11.484375 13.28125 -10.734375 13.28125 -9.984375 C 13.28125 -8.785156 13.59375 -7.882812 14.21875 -7.28125 C 14.851562 -6.675781 15.59375 -6.375 16.4375 -6.375 C 17.488281 -6.375 18.523438 -6.75 19.546875 -7.5 C 20.578125 -8.257812 21.21875 -9.265625 21.46875 -10.515625 Z M 22.671875 -16.296875 "/></g></g></g><g fill="#09b3e4" fill-opacity="1"><g transform="translate(188.242647, 108.06105)"><g><path d="M 41.59375 0 L 24.03125 0 L 22.96875 -11.9375 L 9.078125 -11.9375 L 3.75 0 L -3.53125 0 L 18.625 -47.671875 L 36.40625 -47.671875 Z M 11.5625 -17.421875 L 22.453125 -17.421875 L 20.71875 -37.84375 Z M 11.5625 -17.421875 "/></g></g></g><g fill="#09b3e4" fill-opacity="1"><g transform="translate(233.434378, 108.06105)"><g><path d="M 14.5625 0 L -0.75 0 L 9.90625 -50.453125 L 25.296875 -50.453125 Z M 14.5625 0 "/></g></g></g><g fill="#09b3e4" fill-opacity="1"><g transform="translate(255.429684, 108.06105)"><g><path d="M 11.859375 12.609375 L -3.453125 12.609375 L 6 -32.28125 L 18.25 -32.28125 L 19.59375 -27.484375 L 20.046875 -27.484375 C 21.847656 -29.378906 23.863281 -30.738281 26.09375 -31.5625 C 28.320312 -32.394531 30.507812 -32.8125 32.65625 -32.8125 C 34.40625 -32.8125 35.867188 -32.546875 37.046875 -32.015625 C 38.222656 -31.492188 39.160156 -30.78125 39.859375 -29.875 C 40.566406 -28.976562 41.066406 -27.90625 41.359375 -26.65625 C 41.660156 -25.40625 41.8125 -24.078125 41.8125 -22.671875 C 41.8125 -21.972656 41.757812 -20.921875 41.65625 -19.515625 C 41.5625 -18.117188 41.335938 -16.554688 40.984375 -14.828125 C 40.640625 -13.097656 40.140625 -11.316406 39.484375 -9.484375 C 38.835938 -7.660156 37.972656 -6 36.890625 -4.5 C 35.816406 -3 34.46875 -1.773438 32.84375 -0.828125 C 31.21875 0.117188 29.28125 0.59375 27.03125 0.59375 C 25.78125 0.59375 24.566406 0.441406 23.390625 0.140625 C 22.210938 -0.148438 21.144531 -0.546875 20.1875 -1.046875 C 19.238281 -1.546875 18.398438 -2.132812 17.671875 -2.8125 C 16.953125 -3.488281 16.414062 -4.175781 16.0625 -4.875 L 15.609375 -4.875 Z M 19.828125 -6.6875 C 21.023438 -6.6875 22.023438 -7.320312 22.828125 -8.59375 C 23.628906 -9.875 24.28125 -11.375 24.78125 -13.09375 C 25.28125 -14.820312 25.640625 -16.550781 25.859375 -18.28125 C 26.085938 -20.007812 26.203125 -21.296875 26.203125 -22.140625 C 26.203125 -23.148438 26.035156 -23.976562 25.703125 -24.625 C 25.378906 -25.28125 24.796875 -25.609375 23.953125 -25.609375 C 22.992188 -25.609375 22.085938 -25.269531 21.234375 -24.59375 C 20.390625 -23.914062 19.769531 -23.328125 19.375 -22.828125 L 16.4375 -9.078125 C 16.84375 -8.535156 17.316406 -8 17.859375 -7.46875 C 18.410156 -6.945312 19.066406 -6.6875 19.828125 -6.6875 Z M 19.828125 -6.6875 "/></g></g></g><g fill="#09b3e4" fill-opacity="1"><g transform="translate(299.270163, 108.06105)"><g><path d="M 20.421875 -27.484375 L 20.953125 -27.484375 C 21.898438 -28.429688 23 -29.304688 24.25 -30.109375 C 25.300781 -30.804688 26.550781 -31.429688 28 -31.984375 C 29.457031 -32.535156 31.085938 -32.8125 32.890625 -32.8125 C 35.484375 -32.8125 37.628906 -32.144531 39.328125 -30.8125 C 41.035156 -29.488281 41.890625 -27.675781 41.890625 -25.375 C 41.890625 -24.675781 41.8125 -23.890625 41.65625 -23.015625 C 41.507812 -22.140625 41.335938 -21.210938 41.140625 -20.234375 C 40.941406 -19.253906 40.726562 -18.273438 40.5 -17.296875 C 40.28125 -16.328125 40.09375 -15.441406 39.9375 -14.640625 L 36.78125 0 L 21.546875 0 L 25.671875 -19.59375 C 25.773438 -20.25 25.898438 -20.910156 26.046875 -21.578125 C 26.203125 -22.253906 26.28125 -22.867188 26.28125 -23.421875 C 26.28125 -24.171875 26.09375 -24.785156 25.71875 -25.265625 C 25.34375 -25.742188 24.78125 -25.984375 24.03125 -25.984375 C 23.125 -25.984375 22.257812 -25.65625 21.4375 -25 C 20.613281 -24.351562 19.972656 -23.78125 19.515625 -23.28125 L 14.5625 0 L -0.75 0 L 9.90625 -50.453125 L 25.296875 -50.453125 Z M 20.421875 -27.484375 "/></g></g></g><g fill="#09b3e4" fill-opacity="1"><g transform="translate(343.260783, 108.06105)"><g><path d="M 5.40625 -29.5 C 7.957031 -30.75 10.570312 -31.660156 13.25 -32.234375 C 15.925781 -32.816406 18.914062 -33.109375 22.21875 -33.109375 C 25.425781 -33.109375 28.078125 -32.859375 30.171875 -32.359375 C 32.273438 -31.859375 33.953125 -31.128906 35.203125 -30.171875 C 36.460938 -29.222656 37.34375 -28.097656 37.84375 -26.796875 C 38.34375 -25.492188 38.59375 -24.019531 38.59375 -22.375 C 38.59375 -21.425781 38.53125 -20.398438 38.40625 -19.296875 C 38.28125 -18.191406 38.140625 -17.265625 37.984375 -16.515625 L 34.453125 0 L 22.375 0 L 21.015625 -4.8125 L 20.578125 -4.8125 C 18.972656 -3.050781 17.101562 -1.707031 14.96875 -0.78125 C 12.84375 0.132812 10.734375 0.59375 8.640625 0.59375 C 7.429688 0.59375 6.25 0.414062 5.09375 0.0625 C 3.945312 -0.28125 2.921875 -0.8125 2.015625 -1.53125 C 1.117188 -2.257812 0.398438 -3.1875 -0.140625 -4.3125 C -0.691406 -5.4375 -0.96875 -6.800781 -0.96875 -8.40625 C -0.96875 -11.007812 -0.257812 -13.070312 1.15625 -14.59375 C 2.582031 -16.125 4.457031 -17.273438 6.78125 -18.046875 C 9.113281 -18.828125 11.742188 -19.316406 14.671875 -19.515625 C 17.597656 -19.722656 20.539062 -19.828125 23.5 -19.828125 C 23.601562 -20.328125 23.726562 -21.035156 23.875 -21.953125 C 24.019531 -22.878906 24.09375 -23.695312 24.09375 -24.40625 C 24.09375 -25.300781 23.851562 -26.132812 23.375 -26.90625 C 22.90625 -27.6875 21.921875 -28.078125 20.421875 -28.078125 C 18.671875 -28.078125 17.378906 -27.5625 16.546875 -26.53125 C 15.722656 -25.507812 15.1875 -24.273438 14.9375 -22.828125 L 3.984375 -22.828125 Z M 22.671875 -16.296875 L 21.328125 -16.296875 C 19.867188 -16.296875 18.625 -16.109375 17.59375 -15.734375 C 16.570312 -15.359375 15.75 -14.867188 15.125 -14.265625 C 14.5 -13.660156 14.035156 -12.984375 13.734375 -12.234375 C 13.429688 -11.484375 13.28125 -10.734375 13.28125 -9.984375 C 13.28125 -8.785156 13.59375 -7.882812 14.21875 -7.28125 C 14.851562 -6.675781 15.59375 -6.375 16.4375 -6.375 C 17.488281 -6.375 18.523438 -6.75 19.546875 -7.5 C 20.578125 -8.257812 21.21875 -9.265625 21.46875 -10.515625 Z M 22.671875 -16.296875 "/></g></g></g><g fill="#000000" fill-opacity="0.4"><g transform="translate(411.580242, 111.378797)"><g><path d="M 5.859375 -47.671875 L 24.171875 -47.671875 L 25.453125 -15.171875 L 37.984375 -47.671875 L 52.859375 -47.671875 L 54.8125 -15.171875 L 67.421875 -47.671875 L 75.296875 -47.671875 L 56.765625 0 L 39.859375 0 L 38.296875 -26.953125 L 27.03125 0 L 9.015625 0 Z M 5.859375 -47.671875 "/></g></g></g><g fill="#000000" fill-opacity="0.4"><g transform="translate(482.445676, 111.378797)"><g><path d="M 16.359375 -15.09375 C 16.160156 -13.988281 16.023438 -12.9375 15.953125 -11.9375 C 15.878906 -10.9375 15.84375 -10.035156 15.84375 -9.234375 C 15.84375 -8.785156 15.863281 -8.285156 15.90625 -7.734375 C 15.957031 -7.179688 16.070312 -6.664062 16.25 -6.1875 C 16.425781 -5.71875 16.675781 -5.316406 17 -4.984375 C 17.332031 -4.660156 17.796875 -4.5 18.390625 -4.5 C 18.835938 -4.5 19.347656 -4.648438 19.921875 -4.953125 C 20.503906 -5.253906 21.082031 -5.679688 21.65625 -6.234375 C 22.226562 -6.785156 22.773438 -7.457031 23.296875 -8.25 C 23.828125 -9.050781 24.242188 -9.957031 24.546875 -10.96875 L 36.859375 -10.96875 L 34.90625 -2.921875 C 33.90625 -2.273438 32.753906 -1.722656 31.453125 -1.265625 C 30.148438 -0.816406 28.773438 -0.457031 27.328125 -0.1875 C 25.878906 0.0820312 24.398438 0.28125 22.890625 0.40625 C 21.390625 0.53125 19.96875 0.59375 18.625 0.59375 C 16.113281 0.59375 13.78125 0.367188 11.625 -0.078125 C 9.476562 -0.523438 7.601562 -1.296875 6 -2.390625 C 4.40625 -3.492188 3.144531 -4.957031 2.21875 -6.78125 C 1.289062 -8.613281 0.828125 -10.882812 0.828125 -13.59375 C 0.828125 -16.039062 1.210938 -18.441406 1.984375 -20.796875 C 2.765625 -23.148438 4.066406 -25.238281 5.890625 -27.0625 C 7.722656 -28.894531 10.175781 -30.359375 13.25 -31.453125 C 16.332031 -32.554688 20.175781 -33.109375 24.78125 -33.109375 C 29.78125 -33.109375 33.539062 -32.332031 36.0625 -30.78125 C 38.59375 -29.226562 39.859375 -26.800781 39.859375 -23.5 C 39.859375 -22.144531 39.660156 -20.679688 39.265625 -19.109375 C 38.867188 -17.535156 38.269531 -16.195312 37.46875 -15.09375 Z M 26.359375 -24.03125 C 26.359375 -25.582031 26.101562 -26.628906 25.59375 -27.171875 C 25.09375 -27.722656 24.492188 -28 23.796875 -28 C 22.992188 -28 22.253906 -27.734375 21.578125 -27.203125 C 20.910156 -26.679688 20.300781 -25.984375 19.75 -25.109375 C 19.195312 -24.234375 18.691406 -23.234375 18.234375 -22.109375 C 17.785156 -20.984375 17.414062 -19.796875 17.125 -18.546875 L 25.671875 -18.546875 C 25.773438 -19.140625 25.878906 -19.765625 25.984375 -20.421875 C 26.078125 -20.972656 26.160156 -21.570312 26.234375 -22.21875 C 26.316406 -22.875 26.359375 -23.476562 26.359375 -24.03125 Z M 26.359375 -24.03125 "/></g></g></g><g fill="#000000" fill-opacity="0.4"><g transform="translate(523.508594, 111.378797)"><g><path d="M 11.40625 0 L -0.75 0 L 9.90625 -50.453125 L 25.296875 -50.453125 L 20.421875 -27.484375 L 20.953125 -27.484375 C 22.597656 -29.378906 24.457031 -30.738281 26.53125 -31.5625 C 28.613281 -32.394531 30.679688 -32.8125 32.734375 -32.8125 C 34.484375 -32.8125 35.945312 -32.546875 37.125 -32.015625 C 38.300781 -31.492188 39.238281 -30.78125 39.9375 -29.875 C 40.644531 -28.976562 41.144531 -27.90625 41.4375 -26.65625 C 41.738281 -25.40625 41.890625 -24.078125 41.890625 -22.671875 C 41.890625 -21.972656 41.835938 -20.921875 41.734375 -19.515625 C 41.640625 -18.117188 41.414062 -16.554688 41.0625 -14.828125 C 40.71875 -13.097656 40.21875 -11.316406 39.5625 -9.484375 C 38.914062 -7.660156 38.050781 -6 36.96875 -4.5 C 35.894531 -3 34.546875 -1.773438 32.921875 -0.828125 C 31.296875 0.117188 29.359375 0.59375 27.109375 0.59375 C 25.753906 0.59375 24.4375 0.441406 23.15625 0.140625 C 21.882812 -0.148438 20.734375 -0.546875 19.703125 -1.046875 C 18.679688 -1.546875 17.78125 -2.132812 17 -2.8125 C 16.226562 -3.488281 15.664062 -4.175781 15.3125 -4.875 L 14.796875 -4.875 Z M 19.890625 -6.6875 C 21.097656 -6.6875 22.097656 -7.320312 22.890625 -8.59375 C 23.691406 -9.875 24.34375 -11.375 24.84375 -13.09375 C 25.351562 -14.820312 25.71875 -16.550781 25.9375 -18.28125 C 26.164062 -20.007812 26.28125 -21.296875 26.28125 -22.140625 C 26.28125 -23.148438 26.113281 -23.976562 25.78125 -24.625 C 25.457031 -25.28125 24.875 -25.609375 24.03125 -25.609375 C 23.019531 -25.609375 22.085938 -25.242188 21.234375 -24.515625 C 20.390625 -23.785156 19.769531 -23.171875 19.375 -22.671875 L 16.4375 -9.234375 C 16.789062 -8.628906 17.253906 -8.050781 17.828125 -7.5 C 18.398438 -6.957031 19.085938 -6.6875 19.890625 -6.6875 Z M 19.890625 -6.6875 "/></g></g></g><g fill="#f57d11" fill-opacity="1"><g transform="translate(408.262498, 108.06105)"><g><path d="M 5.859375 -47.671875 L 24.171875 -47.671875 L 25.453125 -15.171875 L 37.984375 -47.671875 L 52.859375 -47.671875 L 54.8125 -15.171875 L 67.421875 -47.671875 L 75.296875 -47.671875 L 56.765625 0 L 39.859375 0 L 38.296875 -26.953125 L 27.03125 0 L 9.015625 0 Z M 5.859375 -47.671875 "/></g></g></g><g fill="#f57d11" fill-opacity="1"><g transform="translate(479.127932, 108.06105)"><g><path d="M 16.359375 -15.09375 C 16.160156 -13.988281 16.023438 -12.9375 15.953125 -11.9375 C 15.878906 -10.9375 15.84375 -10.035156 15.84375 -9.234375 C 15.84375 -8.785156 15.863281 -8.285156 15.90625 -7.734375 C 15.957031 -7.179688 16.070312 -6.664062 16.25 -6.1875 C 16.425781 -5.71875 16.675781 -5.316406 17 -4.984375 C 17.332031 -4.660156 17.796875 -4.5 18.390625 -4.5 C 18.835938 -4.5 19.347656 -4.648438 19.921875 -4.953125 C 20.503906 -5.253906 21.082031 -5.679688 21.65625 -6.234375 C 22.226562 -6.785156 22.773438 -7.457031 23.296875 -8.25 C 23.828125 -9.050781 24.242188 -9.957031 24.546875 -10.96875 L 36.859375 -10.96875 L 34.90625 -2.921875 C 33.90625 -2.273438 32.753906 -1.722656 31.453125 -1.265625 C 30.148438 -0.816406 28.773438 -0.457031 27.328125 -0.1875 C 25.878906 0.0820312 24.398438 0.28125 22.890625 0.40625 C 21.390625 0.53125 19.96875 0.59375 18.625 0.59375 C 16.113281 0.59375 13.78125 0.367188 11.625 -0.078125 C 9.476562 -0.523438 7.601562 -1.296875 6 -2.390625 C 4.40625 -3.492188 3.144531 -4.957031 2.21875 -6.78125 C 1.289062 -8.613281 0.828125 -10.882812 0.828125 -13.59375 C 0.828125 -16.039062 1.210938 -18.441406 1.984375 -20.796875 C 2.765625 -23.148438 4.066406 -25.238281 5.890625 -27.0625 C 7.722656 -28.894531 10.175781 -30.359375 13.25 -31.453125 C 16.332031 -32.554688 20.175781 -33.109375 24.78125 -33.109375 C 29.78125 -33.109375 33.539062 -32.332031 36.0625 -30.78125 C 38.59375 -29.226562 39.859375 -26.800781 39.859375 -23.5 C 39.859375 -22.144531 39.660156 -20.679688 39.265625 -19.109375 C 38.867188 -17.535156 38.269531 -16.195312 37.46875 -15.09375 Z M 26.359375 -24.03125 C 26.359375 -25.582031 26.101562 -26.628906 25.59375 -27.171875 C 25.09375 -27.722656 24.492188 -28 23.796875 -28 C 22.992188 -28 22.253906 -27.734375 21.578125 -27.203125 C 20.910156 -26.679688 20.300781 -25.984375 19.75 -25.109375 C 19.195312 -24.234375 18.691406 -23.234375 18.234375 -22.109375 C 17.785156 -20.984375 17.414062 -19.796875 17.125 -18.546875 L 25.671875 -18.546875 C 25.773438 -19.140625 25.878906 -19.765625 25.984375 -20.421875 C 26.078125 -20.972656 26.160156 -21.570312 26.234375 -22.21875 C 26.316406 -22.875 26.359375 -23.476562 26.359375 -24.03125 Z M 26.359375 -24.03125 "/></g></g></g><g fill="#f57d11" fill-opacity="1"><g transform="translate(520.19085, 108.06105)"><g><path d="M 11.40625 0 L -0.75 0 L 9.90625 -50.453125 L 25.296875 -50.453125 L 20.421875 -27.484375 L 20.953125 -27.484375 C 22.597656 -29.378906 24.457031 -30.738281 26.53125 -31.5625 C 28.613281 -32.394531 30.679688 -32.8125 32.734375 -32.8125 C 34.484375 -32.8125 35.945312 -32.546875 37.125 -32.015625 C 38.300781 -31.492188 39.238281 -30.78125 39.9375 -29.875 C 40.644531 -28.976562 41.144531 -27.90625 41.4375 -26.65625 C 41.738281 -25.40625 41.890625 -24.078125 41.890625 -22.671875 C 41.890625 -21.972656 41.835938 -20.921875 41.734375 -19.515625 C 41.640625 -18.117188 41.414062 -16.554688 41.0625 -14.828125 C 40.71875 -13.097656 40.21875 -11.316406 39.5625 -9.484375 C 38.914062 -7.660156 38.050781 -6 36.96875 -4.5 C 35.894531 -3 34.546875 -1.773438 32.921875 -0.828125 C 31.296875 0.117188 29.359375 0.59375 27.109375 0.59375 C 25.753906 0.59375 24.4375 0.441406 23.15625 0.140625 C 21.882812 -0.148438 20.734375 -0.546875 19.703125 -1.046875 C 18.679688 -1.546875 17.78125 -2.132812 17 -2.8125 C 16.226562 -3.488281 15.664062 -4.175781 15.3125 -4.875 L 14.796875 -4.875 Z M 19.890625 -6.6875 C 21.097656 -6.6875 22.097656 -7.320312 22.890625 -8.59375 C 23.691406 -9.875 24.34375 -11.375 24.84375 -13.09375 C 25.351562 -14.820312 25.71875 -16.550781 25.9375 -18.28125 C 26.164062 -20.007812 26.28125 -21.296875 26.28125 -22.140625 C 26.28125 -23.148438 26.113281 -23.976562 25.78125 -24.625 C 25.457031 -25.28125 24.875 -25.609375 24.03125 -25.609375 C 23.019531 -25.609375 22.085938 -25.242188 21.234375 -24.515625 C 20.390625 -23.785156 19.769531 -23.171875 19.375 -22.671875 L 16.4375 -9.234375 C 16.789062 -8.628906 17.253906 -8.050781 17.828125 -7.5 C 18.398438 -6.957031 19.085938 -6.6875 19.890625 -6.6875 Z M 19.890625 -6.6875 "/></g></g></g><g clip-path="url(#6a3efd788f)"><path fill="#383f84" d="M 143.21875 83.464844 C 143.152344 83.003906 143.152344 83 143.640625 82.996094 C 145.734375 82.960938 147.828125 82.933594 149.921875 82.894531 C 152.585938 82.839844 155.25 82.773438 157.914062 82.710938 C 160.414062 82.652344 162.914062 82.59375 165.410156 82.53125 C 169.011719 82.445312 172.609375 82.351562 176.207031 82.257812 C 176.867188 82.238281 177.527344 82.191406 178.191406 82.175781 C 178.832031 82.15625 179.222656 82.589844 179.601562 83.019531 C 179.664062 83.085938 179.679688 83.210938 179.683594 83.3125 C 179.722656 85.695312 179.761719 88.074219 179.796875 90.457031 C 179.804688 90.949219 179.804688 90.945312 179.300781 90.953125 C 176.183594 91.011719 173.070312 91.074219 169.953125 91.136719 C 167.195312 91.195312 164.441406 91.253906 161.6875 91.316406 C 159.007812 91.375 156.328125 91.433594 153.648438 91.5 C 151.628906 91.554688 149.613281 91.613281 147.597656 91.679688 C 146.46875 91.71875 145.34375 91.769531 144.214844 91.832031 C 143.347656 91.878906 142.644531 91.246094 142.644531 90.394531 C 142.636719 88.265625 142.625 86.140625 142.617188 84.015625 C 142.617188 83.910156 142.621094 83.804688 142.625 83.699219 C 142.644531 83.175781 142.683594 83.15625 143.21875 83.441406 C 143.273438 83.460938 143.28125 83.453125 143.292969 83.445312 C 143.269531 83.449219 143.242188 83.457031 143.21875 83.464844 Z M 143.863281 89.753906 C 143.898438 90.839844 143.898438 90.839844 145.007812 90.765625 C 145.304688 90.765625 145.597656 90.761719 145.972656 90.761719 C 146.136719 90.765625 146.304688 90.773438 146.46875 90.769531 C 148.9375 90.734375 151.40625 90.695312 153.960938 90.667969 C 154.257812 90.644531 154.554688 90.601562 154.851562 90.59375 C 156.144531 90.558594 157.4375 90.53125 158.730469 90.5 C 159.8125 90.472656 160.890625 90.441406 161.972656 90.410156 C 163.144531 90.378906 164.316406 90.351562 165.488281 90.320312 C 166.617188 90.289062 167.742188 90.253906 168.867188 90.230469 C 170.507812 90.195312 172.148438 90.167969 173.785156 90.136719 C 175.246094 90.105469 176.703125 90.070312 178.160156 90.050781 C 178.445312 90.050781 178.519531 89.945312 178.511719 89.679688 C 178.472656 87.738281 178.445312 85.792969 178.410156 83.851562 C 178.40625 83.75 178.359375 83.652344 178.335938 83.46875 C 178.363281 83.175781 178.144531 83.261719 178.003906 83.261719 C 176.984375 83.265625 175.964844 83.277344 174.878906 83.273438 C 174.796875 83.289062 174.714844 83.304688 174.546875 83.335938 C 170.808594 83.40625 167.070312 83.472656 163.253906 83.535156 C 162.941406 83.5625 162.628906 83.605469 162.316406 83.613281 C 161.070312 83.652344 159.828125 83.675781 158.582031 83.707031 C 157.351562 83.738281 156.125 83.769531 154.894531 83.796875 C 153.648438 83.828125 152.40625 83.859375 151.160156 83.886719 C 149.855469 83.917969 148.550781 83.957031 147.246094 83.976562 C 146.222656 83.992188 145.203125 83.980469 144.113281 83.96875 C 144.074219 83.945312 144.035156 83.925781 144 83.902344 C 143.828125 83.796875 143.65625 83.6875 143.484375 83.582031 C 143.527344 83.769531 143.566406 83.960938 143.605469 84.234375 C 143.636719 85 143.664062 85.765625 143.699219 86.527344 C 143.734375 87.261719 143.777344 87.996094 143.832031 88.757812 C 143.835938 88.785156 143.824219 88.800781 143.796875 88.902344 C 143.8125 89.15625 143.828125 89.414062 143.863281 89.753906 Z M 143.863281 89.753906 " fill-opacity="1" fill-rule="nonzero"/></g><path fill="#404ba6" d="M 145.890625 90.757812 C 145.597656 90.761719 145.304688 90.765625 144.949219 90.738281 C 144.800781 90.65625 144.714844 90.597656 144.625 90.542969 C 144.160156 90.269531 143.898438 89.898438 143.984375 89.328125 C 144.007812 89.167969 143.976562 88.996094 143.949219 88.835938 C 143.945312 88.792969 143.863281 88.761719 143.820312 88.726562 C 143.777344 87.996094 143.734375 87.261719 143.699219 86.527344 C 143.664062 85.761719 143.636719 85 143.640625 84.195312 C 143.84375 84.097656 144.011719 84.039062 144.179688 83.980469 C 145.203125 83.980469 146.226562 83.988281 147.246094 83.972656 C 148.550781 83.957031 149.855469 83.917969 151.160156 83.886719 C 152.40625 83.855469 153.652344 83.824219 154.894531 83.796875 C 156.125 83.765625 157.355469 83.734375 158.582031 83.703125 C 159.828125 83.675781 161.074219 83.648438 162.316406 83.613281 C 162.628906 83.601562 162.941406 83.5625 163.324219 83.554688 C 164.222656 83.589844 165.050781 83.621094 165.875 83.613281 C 168.449219 83.589844 171.023438 83.5625 173.59375 83.519531 C 174.101562 83.511719 174.613281 83.460938 175.117188 83.386719 C 175.832031 83.28125 176.523438 83.28125 177.164062 83.65625 C 177.351562 83.765625 177.519531 83.9375 177.558594 83.53125 C 177.5625 83.457031 177.800781 83.355469 177.929688 83.359375 C 178.066406 83.367188 178.199219 83.480469 178.332031 83.546875 C 178.359375 83.648438 178.40625 83.746094 178.410156 83.847656 C 178.445312 85.789062 178.472656 87.730469 178.511719 89.675781 C 178.519531 89.941406 178.445312 90.046875 178.160156 90.046875 C 176.703125 90.066406 175.246094 90.105469 173.785156 90.132812 C 172.148438 90.164062 170.507812 90.191406 168.867188 90.226562 C 167.742188 90.25 166.617188 90.285156 165.488281 90.316406 C 164.316406 90.347656 163.144531 90.375 161.972656 90.40625 C 160.890625 90.4375 159.8125 90.46875 158.730469 90.496094 C 157.4375 90.53125 156.144531 90.554688 154.851562 90.589844 C 154.554688 90.597656 154.257812 90.640625 153.886719 90.648438 C 152.386719 90.554688 150.964844 90.457031 149.535156 90.414062 C 148.3125 90.378906 147.085938 90.429688 145.890625 90.757812 Z M 144.046875 85.382812 C 144.027344 85.382812 144.007812 85.382812 143.988281 85.382812 C 143.992188 85.398438 143.992188 85.417969 143.996094 85.417969 C 144.015625 85.421875 144.039062 85.421875 144.027344 85.488281 C 144.164062 85.851562 144.285156 86.222656 144.445312 86.574219 C 144.492188 86.671875 144.660156 86.761719 144.773438 86.765625 C 145.039062 86.769531 145.304688 86.722656 145.570312 86.695312 C 145.628906 86.6875 145.683594 86.675781 145.742188 86.667969 C 145.699219 86.613281 145.671875 86.542969 145.617188 86.503906 C 145.097656 86.144531 144.574219 85.789062 144.046875 85.382812 Z M 150.707031 87.421875 C 150.148438 87.449219 149.59375 87.464844 149.039062 87.515625 C 147.773438 87.632812 146.507812 87.765625 145.242188 87.898438 C 145.144531 87.910156 144.96875 87.988281 144.972656 88.011719 C 145.019531 88.292969 145.070312 88.578125 145.175781 88.839844 C 145.191406 88.890625 145.445312 88.871094 145.585938 88.84375 C 147.835938 88.433594 150.082031 88.015625 152.332031 87.597656 C 152.375 87.589844 152.421875 87.578125 152.464844 87.570312 C 152.417969 87.546875 152.367188 87.511719 152.320312 87.507812 C 151.8125 87.476562 151.300781 87.449219 150.707031 87.421875 Z M 163.539062 85.25 C 160.59375 85.265625 157.644531 85.15625 154.699219 85.425781 C 153.566406 85.527344 152.429688 85.617188 151.296875 85.714844 C 151.25 85.71875 151.203125 85.730469 151.15625 85.738281 C 151.199219 85.753906 151.242188 85.773438 151.289062 85.777344 C 151.707031 85.8125 152.128906 85.894531 152.542969 85.875 C 154.417969 85.773438 156.289062 85.585938 158.160156 85.542969 C 160.714844 85.480469 163.273438 85.515625 165.828125 85.515625 C 166.460938 85.515625 167.09375 85.527344 167.726562 85.53125 C 167.78125 85.53125 167.835938 85.5 167.890625 85.484375 C 167.835938 85.464844 167.78125 85.4375 167.726562 85.433594 C 166.363281 85.371094 164.996094 85.308594 163.539062 85.25 Z M 153.410156 88.871094 C 154.257812 88.777344 155.105469 88.679688 155.953125 88.601562 C 157.058594 88.5 158.164062 88.414062 159.265625 88.320312 C 159.308594 88.316406 159.351562 88.296875 159.398438 88.289062 C 159.351562 88.273438 159.308594 88.242188 159.265625 88.246094 C 157.996094 88.289062 156.738281 87.980469 155.457031 88.21875 C 153.816406 88.523438 152.152344 88.734375 150.5 88.988281 C 150.339844 89.011719 150.1875 89.066406 150.03125 89.105469 C 150.207031 89.113281 150.378906 89.144531 150.550781 89.132812 C 151.476562 89.050781 152.402344 88.957031 153.410156 88.871094 Z M 174.390625 89.140625 C 174.496094 89.140625 174.601562 89.140625 174.707031 89.140625 C 175.503906 89.167969 176.300781 89.199219 177.097656 89.226562 C 177.15625 89.226562 177.21875 89.214844 177.277344 89.210938 C 177.230469 89.191406 177.183594 89.15625 177.136719 89.148438 C 176.289062 89.023438 175.445312 88.8125 174.597656 88.796875 C 172.660156 88.769531 170.71875 88.839844 168.777344 88.871094 C 168.710938 88.871094 168.640625 88.902344 168.574219 88.917969 C 168.644531 88.929688 168.71875 88.953125 168.792969 88.957031 C 170.628906 89.019531 172.464844 89.082031 174.390625 89.140625 Z M 177.433594 88.0625 C 177.425781 87.898438 177.414062 87.730469 177.417969 87.566406 C 177.421875 87.402344 177.375 87.367188 177.207031 87.40625 C 176.410156 87.59375 175.605469 87.765625 174.804688 87.945312 C 174.71875 87.964844 174.632812 88 174.550781 88.03125 C 174.632812 88.0625 174.710938 88.117188 174.796875 88.128906 C 175.5625 88.257812 176.335938 88.371094 177.101562 88.503906 C 177.433594 88.5625 177.492188 88.417969 177.433594 88.0625 Z M 158.328125 89.414062 C 157.929688 89.460938 157.53125 89.507812 157.128906 89.554688 C 157.53125 89.578125 157.929688 89.601562 158.332031 89.625 C 158.375 89.625 158.421875 89.621094 158.464844 89.621094 C 158.441406 89.554688 158.421875 89.484375 158.328125 89.414062 Z M 177.03125 85.257812 C 177.019531 85.269531 177.003906 85.285156 176.996094 85.300781 C 176.992188 85.304688 177.011719 85.324219 177.023438 85.328125 C 177.140625 85.355469 177.261719 85.382812 177.382812 85.40625 C 177.382812 85.40625 177.402344 85.332031 177.398438 85.332031 C 177.296875 85.300781 177.195312 85.277344 177.03125 85.257812 Z M 177.03125 85.257812 " fill-opacity="1" fill-rule="nonzero"/><path fill="#404ba6" d="M 143.800781 88.859375 C 143.820312 89.074219 143.84375 89.332031 143.851562 89.628906 C 143.828125 89.414062 143.8125 89.15625 143.800781 88.859375 Z M 143.800781 88.859375 " fill-opacity="1" fill-rule="nonzero"/><path fill="#404ba6" d="M 174.910156 83.277344 C 174.863281 83.300781 174.777344 83.316406 174.664062 83.328125 C 174.714844 83.304688 174.796875 83.289062 174.910156 83.277344 Z M 174.910156 83.277344 " fill-opacity="1" fill-rule="nonzero"/></svg>