<svg xmlns="http://www.w3.org/2000/svg" xmlns:xlink="http://www.w3.org/1999/xlink" width="1000" zoomAndPan="magnify" viewBox="0 0 750 374.999991" height="500" preserveAspectRatio="xMidYMid meet" version="1.0"><defs><g/><clipPath id="8408a5d82a"><path d="M 6.09375 121.039062 L 138.84375 121.039062 L 138.84375 253.789062 L 6.09375 253.789062 Z M 6.09375 121.039062 " clip-rule="nonzero"/></clipPath><clipPath id="178bf5d16c"><path d="M 614.503906 123 L 649 123 L 649 234 L 614.503906 234 Z M 614.503906 123 " clip-rule="nonzero"/></clipPath><clipPath id="6f4419e1aa"><path d="M 710 123 L 744.253906 123 L 744.253906 234 L 710 234 Z M 710 123 " clip-rule="nonzero"/></clipPath><clipPath id="c9eb983668"><path d="M 681 118.574219 L 709 118.574219 L 709 147 L 681 147 Z M 681 118.574219 " clip-rule="nonzero"/></clipPath><clipPath id="8b3618b896"><path d="M 650 212 L 678 212 L 678 239.324219 L 650 239.324219 Z M 650 212 " clip-rule="nonzero"/></clipPath><clipPath id="0ef1ac2a5e"><path d="M 554.769531 172.128906 L 608 172.128906 L 608 185.628906 L 554.769531 185.628906 Z M 554.769531 172.128906 " clip-rule="nonzero"/></clipPath><clipPath id="c0c2ff85e9"><path d="M 139.015625 172.128906 L 192.265625 172.128906 L 192.265625 185.628906 L 139.015625 185.628906 Z M 139.015625 172.128906 " clip-rule="nonzero"/></clipPath></defs><g clip-path="url(#8408a5d82a)"><path fill="#948bfc" d="M 126.339844 133.707031 C 109.414062 116.78125 81.898438 116.78125 64.972656 133.707031 C 48.566406 150.113281 48.152344 176.59375 63.621094 193.519531 L 54.484375 202.65625 L 50.125 198.296875 C 48.253906 196.425781 45.242188 196.425781 43.375 198.296875 L 7.445312 234.222656 C 6.511719 235.15625 6.09375 236.300781 6.09375 237.546875 C 6.09375 238.792969 6.613281 240.039062 7.445312 240.871094 L 19.074219 252.5 C 20.011719 253.433594 21.152344 253.847656 22.398438 253.847656 C 23.644531 253.847656 24.890625 253.328125 25.722656 252.5 L 30.601562 247.617188 L 30.707031 247.722656 L 33.613281 244.816406 L 33.507812 244.710938 L 61.648438 216.570312 C 63.519531 214.703125 63.519531 211.691406 61.648438 209.820312 L 57.289062 205.460938 L 66.425781 196.324219 C 67.777344 197.570312 69.230469 198.816406 70.789062 199.851562 C 73.488281 201.722656 76.5 203.382812 79.71875 204.628906 C 83.351562 206.082031 87.089844 206.914062 91.035156 207.328125 C 92.488281 207.535156 94.046875 207.535156 95.5 207.535156 C 97.058594 207.535156 98.511719 207.433594 100.070312 207.328125 C 103.910156 206.914062 107.753906 205.980469 111.386719 204.628906 C 114.503906 203.382812 117.515625 201.824219 120.320312 199.851562 C 122.394531 198.503906 124.367188 196.839844 126.238281 194.972656 C 143.265625 178.152344 143.265625 150.632812 126.339844 133.707031 Z M 23.019531 249.695312 C 22.8125 249.902344 22.605469 249.902344 22.503906 249.902344 C 22.398438 249.902344 22.191406 249.902344 21.984375 249.695312 L 10.351562 237.960938 C 10.144531 237.753906 10.144531 237.546875 10.144531 237.441406 C 10.144531 237.339844 10.144531 237.132812 10.351562 236.921875 L 15.234375 232.042969 L 27.902344 244.710938 Z M 58.847656 213.765625 L 30.707031 241.90625 L 18.039062 229.238281 L 46.175781 201.097656 C 46.386719 200.996094 46.59375 200.996094 46.695312 200.996094 C 46.90625 200.996094 47.007812 201.097656 47.214844 201.203125 L 58.847656 212.832031 C 59.15625 213.144531 59.15625 213.558594 58.847656 213.765625 Z M 78.574219 199.75 C 77.019531 199.023438 75.460938 198.085938 74.109375 197.152344 L 74.109375 169.84375 C 74.109375 169.21875 74.628906 168.699219 75.253906 168.699219 L 77.535156 168.699219 C 78.160156 168.699219 78.679688 169.21875 78.679688 169.84375 L 78.679688 199.75 Z M 93.425781 203.589844 L 93.425781 150.21875 C 93.425781 149.59375 93.945312 149.074219 94.566406 149.074219 L 96.851562 149.074219 C 97.472656 149.074219 97.992188 149.59375 97.992188 150.21875 L 97.992188 203.589844 C 96.4375 203.695312 94.980469 203.695312 93.425781 203.589844 Z M 117.203125 197.152344 C 115.75 198.085938 114.296875 198.917969 112.738281 199.75 L 112.738281 169.84375 C 112.738281 169.21875 113.257812 168.699219 113.878906 168.699219 L 116.0625 168.699219 C 116.683594 168.699219 117.203125 169.21875 117.203125 169.84375 Z M 123.433594 192.167969 C 122.707031 192.894531 121.980469 193.519531 121.253906 194.140625 L 121.253906 169.84375 C 121.253906 166.9375 118.96875 164.652344 116.0625 164.652344 L 113.878906 164.652344 C 110.972656 164.652344 108.6875 166.9375 108.6875 169.84375 L 108.6875 201.410156 C 106.507812 202.136719 104.328125 202.761719 102.042969 203.070312 L 102.042969 150.113281 C 102.042969 147.207031 99.757812 144.921875 96.851562 144.921875 L 94.566406 144.921875 C 91.660156 144.921875 89.375 147.207031 89.375 150.113281 L 89.375 203.070312 C 87.089844 202.65625 84.910156 202.136719 82.730469 201.410156 L 82.730469 169.84375 C 82.730469 166.9375 80.445312 164.652344 77.535156 164.652344 L 75.253906 164.652344 C 72.34375 164.652344 70.058594 166.9375 70.058594 169.84375 L 70.058594 194.140625 C 69.332031 193.519531 68.605469 192.894531 67.878906 192.167969 C 52.617188 176.800781 52.617188 151.878906 67.878906 136.613281 C 75.5625 128.929688 85.636719 125.089844 95.707031 125.089844 C 105.78125 125.089844 115.75 128.929688 123.433594 136.613281 C 138.800781 151.878906 138.800781 176.800781 123.433594 192.167969 Z M 123.433594 192.167969 " fill-opacity="1" fill-rule="nonzero"/></g><g clip-path="url(#178bf5d16c)"><path fill="#948bfc" d="M 639.578125 164.476562 L 639.578125 140.042969 C 639.578125 136.699219 640.996094 134.894531 644.726562 134.894531 L 648.507812 134.894531 L 648.507812 123.324219 L 640.859375 123.324219 C 634.304688 123.324219 625.429688 127.308594 625.429688 138.753906 L 625.429688 161.902344 C 625.429688 168.335938 620.28125 172.1875 615.140625 172.1875 C 614.902344 172.1875 614.683594 172.246094 614.503906 172.339844 L 614.503906 184.902344 C 614.6875 185 614.902344 185.054688 615.140625 185.054688 C 620.289062 185.054688 625.429688 188.914062 625.429688 195.339844 L 625.429688 218.492188 C 625.429688 229.941406 634.304688 233.925781 640.859375 233.925781 L 648.503906 233.925781 L 648.503906 222.351562 L 644.71875 222.351562 C 640.992188 222.351562 639.574219 220.550781 639.574219 217.207031 L 639.574219 192.773438 C 639.574219 183.773438 633.148438 179.914062 633.148438 179.914062 L 626.714844 178.625 L 633.148438 177.339844 C 633.148438 177.335938 639.578125 173.480469 639.578125 164.476562 Z M 639.578125 164.476562 " fill-opacity="1" fill-rule="nonzero"/></g><g clip-path="url(#6f4419e1aa)"><path fill="#948bfc" d="M 719.304688 164.476562 L 719.304688 140.042969 C 719.304688 136.699219 717.890625 134.894531 714.160156 134.894531 L 710.375 134.894531 L 710.375 123.324219 L 718.023438 123.324219 C 724.582031 123.324219 733.457031 127.308594 733.457031 138.753906 L 733.457031 161.902344 C 733.457031 168.335938 738.601562 172.1875 743.746094 172.1875 C 743.984375 172.1875 744.203125 172.246094 744.382812 172.339844 L 744.382812 184.902344 C 744.195312 185 743.984375 185.054688 743.746094 185.054688 C 738.597656 185.054688 733.457031 188.914062 733.457031 195.339844 L 733.457031 218.492188 C 733.457031 229.941406 724.582031 233.925781 718.023438 233.925781 L 710.382812 233.925781 L 710.382812 222.351562 L 714.164062 222.351562 C 717.894531 222.351562 719.3125 220.550781 719.3125 217.207031 L 719.3125 192.773438 C 719.3125 183.773438 725.738281 179.914062 725.738281 179.914062 L 732.171875 178.625 L 725.738281 177.339844 C 725.738281 177.335938 719.304688 173.480469 719.304688 164.476562 Z M 719.304688 164.476562 " fill-opacity="1" fill-rule="nonzero"/></g><path fill="#f15a29" d="M 712.917969 181.71875 C 713.015625 180.695312 713.058594 179.660156 713.058594 178.621094 C 713.058594 177.578125 713.007812 176.546875 712.917969 175.527344 L 707.496094 175.125 C 707.324219 173.726562 707.054688 172.359375 706.6875 171.035156 L 711.546875 168.585938 C 710.929688 166.597656 710.128906 164.679688 709.171875 162.867188 L 704.007812 164.570312 C 703.320312 163.359375 702.542969 162.199219 701.6875 161.109375 L 705.234375 156.988281 C 703.914062 155.398438 702.445312 153.933594 700.851562 152.609375 L 696.734375 156.160156 C 695.636719 155.304688 694.480469 154.53125 693.269531 153.839844 L 694.972656 148.675781 C 693.160156 147.722656 691.246094 146.917969 689.253906 146.296875 L 686.808594 151.160156 C 685.480469 150.792969 684.113281 150.519531 682.71875 150.347656 L 682.316406 144.925781 C 681.292969 144.835938 680.265625 144.785156 679.21875 144.785156 C 678.175781 144.785156 677.144531 144.835938 676.125 144.925781 L 675.722656 150.347656 C 674.324219 150.519531 672.957031 150.792969 671.632812 151.160156 L 669.183594 146.296875 C 667.1875 146.917969 665.277344 147.714844 663.464844 148.675781 L 665.167969 153.839844 C 663.953125 154.53125 662.796875 155.304688 661.707031 156.160156 L 657.585938 152.609375 C 655.996094 153.933594 654.53125 155.398438 653.203125 156.988281 L 656.757812 161.109375 C 655.902344 162.199219 655.128906 163.359375 654.433594 164.570312 L 649.269531 162.867188 C 648.3125 164.679688 647.515625 166.597656 646.898438 168.585938 L 651.757812 171.035156 C 651.390625 172.359375 651.117188 173.726562 650.945312 175.125 L 645.523438 175.527344 C 645.433594 176.546875 645.382812 177.582031 645.382812 178.621094 C 645.382812 179.667969 645.433594 180.695312 645.523438 181.71875 L 650.945312 182.117188 C 651.117188 183.515625 651.390625 184.882812 651.757812 186.210938 L 646.898438 188.65625 C 647.515625 190.648438 648.3125 192.5625 649.269531 194.375 L 654.433594 192.671875 C 655.121094 193.886719 655.902344 195.042969 656.757812 196.132812 L 653.203125 200.253906 C 654.523438 201.84375 655.992188 203.3125 657.585938 204.636719 L 661.707031 201.089844 C 662.800781 201.945312 663.957031 202.71875 665.167969 203.40625 L 663.464844 208.574219 C 665.277344 209.527344 667.195312 210.324219 669.183594 210.945312 L 671.632812 206.085938 C 672.957031 206.453125 674.324219 206.722656 675.722656 206.894531 L 676.125 212.316406 C 677.144531 212.40625 678.175781 212.457031 679.21875 212.457031 C 680.265625 212.457031 681.292969 212.40625 682.316406 212.316406 L 682.71875 206.894531 C 684.113281 206.722656 685.480469 206.453125 686.808594 206.085938 L 689.253906 210.945312 C 691.246094 210.324219 693.160156 209.527344 694.972656 208.574219 L 693.269531 203.40625 C 694.484375 202.71875 695.640625 201.9375 696.738281 201.085938 L 700.859375 204.636719 C 702.445312 203.316406 703.914062 201.847656 705.242188 200.253906 L 701.6875 196.132812 C 702.542969 195.042969 703.316406 193.882812 704.007812 192.671875 L 709.175781 194.375 C 710.128906 192.5625 710.929688 190.648438 711.546875 188.65625 L 706.6875 186.210938 C 707.054688 184.882812 707.324219 183.515625 707.496094 182.117188 Z M 681.480469 157.207031 C 681.480469 156.203125 682.285156 155.550781 683.269531 155.75 C 683.269531 155.75 687.878906 156.691406 690.847656 158.410156 C 693.816406 160.125 696.9375 163.640625 696.9375 163.640625 C 697.605469 164.394531 697.441406 165.414062 696.566406 165.917969 L 693.359375 167.765625 C 692.492188 168.269531 691.214844 168.082031 690.519531 167.359375 C 690.519531 167.359375 689.011719 165.777344 687.195312 164.726562 C 685.375 163.675781 683.25 163.164062 683.25 163.164062 C 682.273438 162.925781 681.476562 161.914062 681.476562 160.914062 L 681.476562 157.207031 Z M 661.277344 163.640625 C 661.277344 163.640625 664.398438 160.125 667.371094 158.410156 C 670.339844 156.695312 674.949219 155.75 674.949219 155.75 C 675.933594 155.550781 676.738281 156.203125 676.738281 157.207031 L 676.738281 160.914062 C 676.738281 161.917969 675.9375 162.925781 674.960938 163.164062 C 674.960938 163.164062 672.835938 163.675781 671.019531 164.726562 C 669.199219 165.777344 667.691406 167.359375 667.691406 167.359375 C 666.996094 168.089844 665.722656 168.269531 664.851562 167.773438 L 661.652344 165.921875 C 660.78125 165.421875 660.617188 164.394531 661.277344 163.640625 Z M 657.117188 186.625 C 657.117188 186.625 655.628906 182.164062 655.628906 178.738281 C 655.628906 175.304688 657.117188 170.847656 657.117188 170.847656 C 657.433594 169.898438 658.40625 169.527344 659.273438 170.027344 L 662.480469 171.878906 C 663.347656 172.378906 663.828125 173.574219 663.546875 174.539062 C 663.546875 174.539062 662.925781 176.636719 662.925781 178.738281 C 662.925781 180.835938 663.546875 182.933594 663.546875 182.933594 C 663.828125 183.898438 663.347656 185.09375 662.480469 185.597656 L 659.273438 187.445312 C 658.410156 187.949219 657.441406 187.582031 657.117188 186.625 Z M 676.738281 200.265625 C 676.738281 201.269531 675.933594 201.921875 674.949219 201.722656 C 674.949219 201.722656 670.339844 200.777344 667.371094 199.0625 C 664.398438 197.351562 661.277344 193.832031 661.277344 193.832031 C 660.617188 193.078125 660.78125 192.058594 661.652344 191.554688 L 664.855469 189.707031 C 665.726562 189.203125 667.003906 189.390625 667.695312 190.113281 C 667.695312 190.113281 669.203125 191.699219 671.023438 192.746094 C 672.84375 193.796875 674.96875 194.308594 674.96875 194.308594 C 675.941406 194.546875 676.742188 195.5625 676.742188 196.566406 L 676.742188 200.265625 Z M 679.105469 187.195312 C 674.429688 187.195312 670.644531 183.40625 670.644531 178.738281 C 670.644531 174.070312 674.433594 170.28125 679.105469 170.28125 C 683.773438 170.28125 687.5625 174.070312 687.5625 178.738281 C 687.5625 183.40625 683.777344 187.195312 679.105469 187.195312 Z M 696.933594 193.832031 C 696.933594 193.832031 693.8125 197.351562 690.84375 199.0625 C 687.871094 200.777344 683.265625 201.722656 683.265625 201.722656 C 682.28125 201.921875 681.476562 201.265625 681.476562 200.265625 L 681.476562 196.5625 C 681.476562 195.558594 682.273438 194.546875 683.25 194.308594 C 683.25 194.308594 685.375 193.796875 687.1875 192.746094 C 689.007812 191.699219 690.515625 190.113281 690.515625 190.113281 C 691.210938 189.386719 692.484375 189.203125 693.355469 189.707031 L 696.5625 191.554688 C 697.429688 192.058594 697.597656 193.078125 696.933594 193.832031 Z M 701.09375 186.625 C 700.777344 187.578125 699.808594 187.949219 698.9375 187.445312 L 695.730469 185.597656 C 694.863281 185.09375 694.386719 183.898438 694.667969 182.933594 C 694.667969 182.933594 695.285156 180.835938 695.285156 178.738281 C 695.285156 176.636719 694.667969 174.539062 694.667969 174.539062 C 694.378906 173.574219 694.863281 172.378906 695.730469 171.878906 L 698.9375 170.027344 C 699.808594 169.527344 700.777344 169.890625 701.09375 170.847656 C 701.09375 170.847656 702.582031 175.308594 702.582031 178.738281 C 702.578125 182.167969 701.09375 186.625 701.09375 186.625 Z M 701.09375 186.625 " fill-opacity="1" fill-rule="evenodd"/><g clip-path="url(#c9eb983668)"><path fill="#545454" d="M 708.933594 133.574219 C 708.972656 133.164062 708.996094 132.742188 708.996094 132.320312 C 708.996094 131.894531 708.972656 131.472656 708.933594 131.0625 L 706.734375 130.902344 C 706.664062 130.332031 706.550781 129.78125 706.40625 129.242188 L 708.375 128.246094 C 708.125 127.4375 707.804688 126.664062 707.410156 125.925781 L 705.316406 126.621094 C 705.035156 126.128906 704.722656 125.660156 704.375 125.210938 L 705.816406 123.539062 C 705.28125 122.894531 704.6875 122.296875 704.039062 121.761719 L 702.367188 123.203125 C 701.921875 122.855469 701.453125 122.539062 700.957031 122.261719 L 701.652344 120.167969 C 700.914062 119.78125 700.140625 119.453125 699.332031 119.203125 L 698.335938 121.171875 C 697.796875 121.019531 697.246094 120.914062 696.675781 120.84375 L 696.515625 118.644531 C 696.105469 118.605469 695.683594 118.585938 695.261719 118.585938 C 694.839844 118.585938 694.414062 118.605469 694.003906 118.644531 L 693.84375 120.84375 C 693.273438 120.914062 692.722656 121.027344 692.183594 121.171875 L 691.191406 119.203125 C 690.378906 119.453125 689.605469 119.773438 688.867188 120.167969 L 689.5625 122.261719 C 689.070312 122.542969 688.601562 122.855469 688.152344 123.203125 L 686.480469 121.761719 C 685.835938 122.296875 685.238281 122.890625 684.703125 123.539062 L 686.144531 125.210938 C 685.796875 125.65625 685.480469 126.128906 685.203125 126.621094 L 683.109375 125.925781 C 682.722656 126.664062 682.394531 127.4375 682.144531 128.246094 L 684.113281 129.242188 C 683.964844 129.78125 683.859375 130.332031 683.789062 130.902344 L 681.585938 131.0625 C 681.550781 131.472656 681.527344 131.894531 681.527344 132.320312 C 681.527344 132.742188 681.546875 133.164062 681.582031 133.574219 L 683.78125 133.734375 C 683.851562 134.304688 683.964844 134.855469 684.109375 135.394531 L 682.140625 136.390625 C 682.390625 137.199219 682.710938 137.972656 683.105469 138.710938 L 685.199219 138.015625 C 685.480469 138.507812 685.792969 138.976562 686.140625 139.425781 L 684.695312 141.097656 C 685.234375 141.742188 685.828125 142.339844 686.476562 142.875 L 688.148438 141.433594 C 688.589844 141.78125 689.0625 142.097656 689.554688 142.375 L 688.863281 144.46875 C 689.601562 144.855469 690.375 145.183594 691.183594 145.433594 L 692.179688 143.464844 C 692.71875 143.617188 693.269531 143.722656 693.835938 143.792969 L 694 145.992188 C 694.410156 146.027344 694.832031 146.050781 695.253906 146.050781 C 695.675781 146.050781 696.097656 146.03125 696.511719 145.992188 L 696.671875 143.792969 C 697.238281 143.722656 697.792969 143.609375 698.332031 143.464844 L 699.324219 145.433594 C 700.132812 145.183594 700.910156 144.863281 701.648438 144.46875 L 700.953125 142.375 C 701.445312 142.09375 701.914062 141.78125 702.359375 141.433594 L 704.035156 142.875 C 704.675781 142.339844 705.277344 141.746094 705.8125 141.097656 L 704.371094 139.425781 C 704.71875 138.980469 705.035156 138.507812 705.3125 138.015625 L 707.40625 138.710938 C 707.792969 137.972656 708.121094 137.199219 708.371094 136.390625 L 706.402344 135.394531 C 706.550781 134.855469 706.664062 134.304688 706.726562 133.734375 Z M 695.253906 140.097656 C 690.957031 140.097656 687.472656 136.613281 687.472656 132.3125 C 687.472656 128.015625 690.953125 124.527344 695.253906 124.527344 C 699.550781 124.527344 703.039062 128.011719 703.039062 132.3125 C 703.039062 136.613281 699.558594 140.097656 695.253906 140.097656 Z M 695.253906 140.097656 " fill-opacity="1" fill-rule="evenodd"/></g><g clip-path="url(#8b3618b896)"><path fill="#545454" d="M 677.851562 227.039062 C 677.894531 226.628906 677.914062 226.207031 677.914062 225.785156 C 677.914062 225.363281 677.894531 224.941406 677.851562 224.527344 L 675.652344 224.367188 C 675.582031 223.800781 675.46875 223.246094 675.324219 222.707031 L 677.292969 221.714844 C 677.042969 220.90625 676.722656 220.128906 676.328125 219.390625 L 674.234375 220.085938 C 673.953125 219.59375 673.640625 219.125 673.292969 218.679688 L 674.738281 217.003906 C 674.199219 216.363281 673.605469 215.761719 672.957031 215.226562 L 671.285156 216.667969 C 670.84375 216.320312 670.371094 216.003906 669.878906 215.726562 L 670.570312 213.632812 C 669.832031 213.246094 669.058594 212.917969 668.25 212.667969 L 667.253906 214.636719 C 666.714844 214.488281 666.164062 214.382812 665.59375 214.3125 L 665.433594 212.109375 C 665.023438 212.070312 664.601562 212.050781 664.179688 212.050781 C 663.757812 212.050781 663.335938 212.070312 662.921875 212.109375 L 662.761719 214.3125 C 662.195312 214.382812 661.640625 214.492188 661.101562 214.636719 L 660.109375 212.667969 C 659.300781 212.917969 658.523438 213.242188 657.785156 213.632812 L 658.476562 215.722656 C 657.980469 216.003906 657.515625 216.316406 657.066406 216.664062 L 655.394531 215.222656 C 654.75 215.757812 654.152344 216.351562 653.617188 217 L 655.058594 218.671875 C 654.710938 219.117188 654.394531 219.585938 654.117188 220.082031 L 652.023438 219.386719 C 651.636719 220.125 651.308594 220.898438 651.058594 221.707031 L 653.027344 222.703125 C 652.875 223.242188 652.769531 223.792969 652.699219 224.363281 L 650.5 224.523438 C 650.464844 224.933594 650.4375 225.355469 650.4375 225.777344 C 650.4375 226.199219 650.460938 226.625 650.496094 227.035156 L 652.695312 227.195312 C 652.765625 227.765625 652.875 228.316406 653.023438 228.855469 L 651.050781 229.847656 C 651.304688 230.660156 651.625 231.433594 652.015625 232.171875 L 654.113281 231.476562 C 654.394531 231.96875 654.707031 232.4375 655.050781 232.882812 L 653.609375 234.558594 C 654.148438 235.203125 654.742188 235.800781 655.390625 236.335938 L 657.0625 234.894531 C 657.503906 235.242188 657.976562 235.558594 658.46875 235.835938 L 657.777344 237.929688 C 658.515625 238.316406 659.289062 238.644531 660.097656 238.894531 L 661.09375 236.925781 C 661.628906 237.074219 662.183594 237.179688 662.75 237.25 L 662.914062 239.453125 C 663.324219 239.488281 663.746094 239.511719 664.167969 239.511719 C 664.589844 239.511719 665.011719 239.492188 665.425781 239.453125 L 665.585938 237.25 C 666.152344 237.179688 666.707031 237.070312 667.242188 236.925781 L 668.238281 238.894531 C 669.046875 238.644531 669.820312 238.320312 670.5625 237.929688 L 669.867188 235.835938 C 670.359375 235.554688 670.828125 235.242188 671.273438 234.894531 L 672.949219 236.335938 C 673.589844 235.800781 674.1875 235.207031 674.726562 234.558594 L 673.285156 232.882812 C 673.632812 232.441406 673.949219 231.96875 674.222656 231.476562 L 676.320312 232.171875 C 676.707031 231.433594 677.035156 230.660156 677.285156 229.847656 L 675.316406 228.855469 C 675.464844 228.316406 675.574219 227.757812 675.640625 227.195312 Z M 664.179688 233.5625 C 659.882812 233.5625 656.394531 230.082031 656.394531 225.777344 C 656.394531 221.480469 659.875 217.996094 664.179688 217.996094 C 668.476562 217.996094 671.960938 221.476562 671.960938 225.777344 C 671.957031 230.082031 668.476562 233.5625 664.179688 233.5625 Z M 664.179688 233.5625 " fill-opacity="1" fill-rule="evenodd"/></g><g clip-path="url(#0ef1ac2a5e)"><path fill="#383f84" d="M 555.769531 173.941406 C 555.671875 173.300781 555.671875 173.296875 556.367188 173.289062 C 559.351562 173.242188 562.332031 173.207031 565.3125 173.148438 C 569.109375 173.074219 572.902344 172.980469 576.699219 172.894531 C 580.257812 172.8125 583.816406 172.734375 587.378906 172.648438 C 592.5 172.523438 597.625 172.398438 602.75 172.265625 C 603.691406 172.238281 604.632812 172.171875 605.578125 172.148438 C 606.492188 172.125 607.050781 172.722656 607.589844 173.320312 C 607.675781 173.417969 607.703125 173.589844 607.703125 173.730469 C 607.761719 177.035156 607.8125 180.339844 607.867188 183.648438 C 607.878906 184.332031 607.878906 184.324219 607.160156 184.335938 C 602.722656 184.421875 598.285156 184.503906 593.84375 184.59375 C 589.917969 184.671875 585.996094 184.753906 582.070312 184.839844 C 578.253906 184.925781 574.4375 185.003906 570.621094 185.097656 C 567.746094 185.171875 564.875 185.253906 562.003906 185.34375 C 560.398438 185.398438 558.792969 185.472656 557.1875 185.558594 C 555.953125 185.625 554.953125 184.746094 554.945312 183.558594 C 554.9375 180.609375 554.921875 177.65625 554.910156 174.703125 C 554.910156 174.558594 554.914062 174.410156 554.921875 174.265625 C 554.953125 173.539062 555.007812 173.511719 555.765625 173.910156 C 555.84375 173.9375 555.859375 173.925781 555.871094 173.914062 C 555.835938 173.921875 555.800781 173.933594 555.769531 173.941406 Z M 556.683594 182.671875 C 556.738281 184.179688 556.738281 184.179688 558.316406 184.078125 C 558.734375 184.074219 559.152344 184.070312 559.6875 184.070312 C 559.925781 184.074219 560.160156 184.085938 560.394531 184.082031 C 563.914062 184.03125 567.429688 183.980469 571.066406 183.945312 C 571.488281 183.90625 571.914062 183.851562 572.335938 183.839844 C 574.179688 183.789062 576.019531 183.753906 577.859375 183.707031 C 579.398438 183.671875 580.941406 183.625 582.480469 183.585938 C 584.148438 183.542969 585.816406 183.5 587.488281 183.457031 C 589.089844 183.417969 590.695312 183.367188 592.300781 183.335938 C 594.636719 183.285156 596.96875 183.246094 599.304688 183.203125 C 601.382812 183.164062 603.457031 183.109375 605.535156 183.085938 C 605.941406 183.082031 606.042969 182.9375 606.035156 182.566406 C 605.980469 179.871094 605.941406 177.175781 605.890625 174.480469 C 605.886719 174.339844 605.816406 174.199219 605.789062 173.945312 C 605.824219 173.539062 605.515625 173.660156 605.308594 173.660156 C 603.859375 173.667969 602.40625 173.679688 600.859375 173.675781 C 600.742188 173.695312 600.628906 173.71875 600.390625 173.761719 C 595.066406 173.859375 589.742188 173.953125 584.304688 174.042969 C 583.859375 174.078125 583.414062 174.136719 582.96875 174.148438 C 581.195312 174.199219 579.421875 174.238281 577.648438 174.277344 C 575.898438 174.320312 574.148438 174.363281 572.394531 174.402344 C 570.625 174.445312 568.851562 174.488281 567.078125 174.527344 C 565.21875 174.570312 563.363281 174.625 561.503906 174.652344 C 560.046875 174.671875 558.589844 174.660156 557.042969 174.640625 C 556.988281 174.609375 556.933594 174.582031 556.878906 174.550781 C 556.632812 174.402344 556.386719 174.25 556.144531 174.101562 C 556.203125 174.367188 556.261719 174.628906 556.316406 175.011719 C 556.363281 176.070312 556.398438 177.132812 556.453125 178.195312 C 556.5 179.210938 556.566406 180.230469 556.640625 181.292969 C 556.644531 181.324219 556.628906 181.351562 556.589844 181.488281 C 556.613281 181.84375 556.636719 182.199219 556.683594 182.671875 Z M 556.683594 182.671875 " fill-opacity="1" fill-rule="nonzero"/></g><path fill="#404ba6" d="M 559.574219 184.066406 C 559.152344 184.070312 558.734375 184.074219 558.230469 184.042969 C 558.019531 183.925781 557.898438 183.84375 557.769531 183.769531 C 557.105469 183.390625 556.734375 182.871094 556.859375 182.078125 C 556.890625 181.859375 556.847656 181.621094 556.808594 181.398438 C 556.800781 181.339844 556.6875 181.296875 556.621094 181.25 C 556.5625 180.230469 556.5 179.210938 556.453125 178.191406 C 556.402344 177.132812 556.363281 176.070312 556.367188 174.953125 C 556.660156 174.816406 556.898438 174.738281 557.136719 174.65625 C 558.59375 174.65625 560.046875 174.667969 561.503906 174.648438 C 563.363281 174.621094 565.222656 174.570312 567.078125 174.523438 C 568.851562 174.484375 570.625 174.441406 572.398438 174.398438 C 574.148438 174.359375 575.898438 174.316406 577.652344 174.273438 C 579.421875 174.230469 581.195312 174.195312 582.96875 174.144531 C 583.414062 174.132812 583.859375 174.074219 584.402344 174.070312 C 585.683594 174.117188 586.859375 174.15625 588.039062 174.148438 C 591.703125 174.117188 595.367188 174.078125 599.03125 174.019531 C 599.753906 174.007812 600.480469 173.9375 601.199219 173.832031 C 602.214844 173.6875 603.199219 173.6875 604.117188 174.207031 C 604.382812 174.355469 604.621094 174.597656 604.675781 174.035156 C 604.6875 173.933594 605.023438 173.789062 605.207031 173.796875 C 605.398438 173.804688 605.589844 173.964844 605.78125 174.054688 C 605.816406 174.195312 605.886719 174.332031 605.890625 174.472656 C 605.941406 177.167969 605.980469 179.867188 606.035156 182.5625 C 606.042969 182.929688 605.941406 183.078125 605.535156 183.082031 C 603.457031 183.105469 601.382812 183.160156 599.304688 183.199219 C 596.96875 183.242188 594.636719 183.28125 592.300781 183.328125 C 590.695312 183.363281 589.089844 183.410156 587.488281 183.453125 C 585.816406 183.496094 584.148438 183.535156 582.480469 183.582031 C 580.941406 183.621094 579.398438 183.664062 577.859375 183.703125 C 576.019531 183.75 574.175781 183.785156 572.335938 183.835938 C 571.914062 183.847656 571.488281 183.902344 570.960938 183.914062 C 568.828125 183.785156 566.796875 183.648438 564.765625 183.585938 C 563.019531 183.539062 561.273438 183.613281 559.574219 184.066406 Z M 556.945312 176.601562 C 556.917969 176.601562 556.890625 176.605469 556.867188 176.605469 C 556.867188 176.625 556.867188 176.652344 556.875 176.65625 C 556.902344 176.660156 556.933594 176.65625 556.917969 176.75 C 557.113281 177.253906 557.285156 177.769531 557.515625 178.257812 C 557.578125 178.390625 557.816406 178.519531 557.980469 178.523438 C 558.359375 178.53125 558.738281 178.464844 559.117188 178.425781 C 559.199219 178.417969 559.277344 178.402344 559.359375 178.390625 C 559.300781 178.3125 559.257812 178.214844 559.183594 178.164062 C 558.445312 177.660156 557.699219 177.167969 556.945312 176.601562 Z M 566.429688 179.433594 C 565.640625 179.476562 564.84375 179.492188 564.054688 179.5625 C 562.253906 179.726562 560.449219 179.910156 558.648438 180.097656 C 558.511719 180.109375 558.261719 180.21875 558.265625 180.253906 C 558.332031 180.644531 558.40625 181.039062 558.550781 181.402344 C 558.578125 181.472656 558.941406 181.445312 559.136719 181.410156 C 562.339844 180.839844 565.542969 180.257812 568.746094 179.679688 C 568.808594 179.667969 568.871094 179.652344 568.933594 179.640625 C 568.867188 179.609375 568.800781 179.5625 568.730469 179.558594 C 568.003906 179.511719 567.28125 179.472656 566.429688 179.433594 Z M 584.710938 176.417969 C 580.511719 176.445312 576.3125 176.292969 572.121094 176.664062 C 570.503906 176.804688 568.886719 176.929688 567.273438 177.0625 C 567.207031 177.070312 567.140625 177.085938 567.074219 177.097656 C 567.136719 177.117188 567.195312 177.148438 567.257812 177.152344 C 567.855469 177.203125 568.457031 177.316406 569.050781 177.285156 C 571.71875 177.148438 574.378906 176.886719 577.050781 176.824219 C 580.6875 176.738281 584.328125 176.789062 587.96875 176.789062 C 588.871094 176.785156 589.769531 176.808594 590.671875 176.8125 C 590.75 176.8125 590.832031 176.769531 590.910156 176.746094 C 590.832031 176.71875 590.753906 176.679688 590.675781 176.675781 C 588.730469 176.585938 586.785156 176.503906 584.710938 176.417969 Z M 570.28125 181.445312 C 571.488281 181.320312 572.695312 181.183594 573.90625 181.074219 C 575.476562 180.929688 577.050781 180.8125 578.625 180.679688 C 578.6875 180.675781 578.746094 180.652344 578.808594 180.636719 C 578.746094 180.617188 578.683594 180.574219 578.621094 180.578125 C 576.816406 180.636719 575.023438 180.210938 573.199219 180.539062 C 570.859375 180.964844 568.492188 181.253906 566.136719 181.609375 C 565.910156 181.644531 565.691406 181.714844 565.472656 181.769531 C 565.71875 181.785156 565.96875 181.828125 566.210938 181.808594 C 567.53125 181.695312 568.847656 181.566406 570.28125 181.445312 Z M 600.164062 181.820312 C 600.3125 181.824219 600.464844 181.820312 600.613281 181.824219 C 601.75 181.863281 602.886719 181.902344 604.023438 181.9375 C 604.105469 181.941406 604.191406 181.925781 604.273438 181.917969 C 604.207031 181.890625 604.144531 181.84375 604.074219 181.835938 C 602.871094 181.660156 601.667969 181.363281 600.460938 181.34375 C 597.699219 181.304688 594.9375 181.402344 592.171875 181.449219 C 592.074219 181.449219 591.976562 181.488281 591.878906 181.511719 C 591.984375 181.527344 592.085938 181.5625 592.191406 181.566406 C 594.804688 181.65625 597.421875 181.738281 600.164062 181.820312 Z M 604.5 180.324219 C 604.488281 180.09375 604.46875 179.863281 604.476562 179.632812 C 604.480469 179.410156 604.414062 179.363281 604.179688 179.414062 C 603.039062 179.675781 601.898438 179.910156 600.753906 180.160156 C 600.632812 180.1875 600.511719 180.238281 600.390625 180.28125 C 600.507812 180.328125 600.621094 180.398438 600.742188 180.417969 C 601.835938 180.59375 602.933594 180.75 604.027344 180.9375 C 604.5 181.019531 604.585938 180.816406 604.5 180.324219 Z M 577.289062 182.199219 C 576.71875 182.265625 576.148438 182.332031 575.582031 182.394531 C 576.152344 182.429688 576.722656 182.460938 577.289062 182.492188 C 577.355469 182.496094 577.417969 182.488281 577.480469 182.488281 C 577.449219 182.394531 577.417969 182.300781 577.289062 182.199219 Z M 603.929688 176.429688 C 603.910156 176.449219 603.890625 176.46875 603.875 176.492188 C 603.875 176.496094 603.898438 176.523438 603.914062 176.527344 C 604.085938 176.566406 604.253906 176.601562 604.425781 176.636719 C 604.425781 176.636719 604.453125 176.53125 604.449219 176.53125 C 604.308594 176.492188 604.160156 176.457031 603.929688 176.429688 Z M 603.929688 176.429688 " fill-opacity="1" fill-rule="nonzero"/><path fill="#404ba6" d="M 556.59375 181.429688 C 556.625 181.730469 556.652344 182.089844 556.671875 182.5 C 556.636719 182.199219 556.613281 181.84375 556.59375 181.429688 Z M 556.59375 181.429688 " fill-opacity="1" fill-rule="nonzero"/><path fill="#404ba6" d="M 600.90625 173.683594 C 600.835938 173.710938 600.71875 173.734375 600.554688 173.75 C 600.628906 173.71875 600.742188 173.695312 600.90625 173.683594 Z M 600.90625 173.683594 " fill-opacity="1" fill-rule="nonzero"/><g fill="#000000" fill-opacity="0.4"><g transform="translate(196.62379, 198.685261)"><g><path d="M 39.96875 0 L 23.078125 0 L 22.078125 -11.46875 L 8.734375 -11.46875 L 3.609375 0 L -3.390625 0 L 17.890625 -45.8125 L 34.984375 -45.8125 Z M 11.109375 -16.734375 L 21.5625 -16.734375 L 19.90625 -36.359375 Z M 11.109375 -16.734375 "/></g></g></g><g fill="#000000" fill-opacity="0.4"><g transform="translate(240.048467, 198.685261)"><g><path d="M 14 0 L -0.71875 0 L 9.515625 -48.484375 L 24.3125 -48.484375 Z M 14 0 "/></g></g></g><g fill="#000000" fill-opacity="0.4"><g transform="translate(261.183729, 198.685261)"><g><path d="M 11.390625 12.125 L -3.3125 12.125 L 5.765625 -31.015625 L 17.53125 -31.015625 L 18.828125 -26.40625 L 19.265625 -26.40625 C 20.992188 -28.226562 22.925781 -29.535156 25.0625 -30.328125 C 27.207031 -31.128906 29.3125 -31.53125 31.375 -31.53125 C 33.0625 -31.53125 34.46875 -31.273438 35.59375 -30.765625 C 36.726562 -30.265625 37.628906 -29.578125 38.296875 -28.703125 C 38.972656 -27.835938 39.457031 -26.804688 39.75 -25.609375 C 40.039062 -24.410156 40.1875 -23.132812 40.1875 -21.78125 C 40.1875 -21.113281 40.132812 -20.101562 40.03125 -18.75 C 39.9375 -17.40625 39.722656 -15.90625 39.390625 -14.25 C 39.054688 -12.59375 38.578125 -10.882812 37.953125 -9.125 C 37.328125 -7.375 36.492188 -5.773438 35.453125 -4.328125 C 34.421875 -2.890625 33.125 -1.710938 31.5625 -0.796875 C 30 0.117188 28.132812 0.578125 25.96875 0.578125 C 24.769531 0.578125 23.601562 0.429688 22.46875 0.140625 C 21.34375 -0.140625 20.320312 -0.519531 19.40625 -1 C 18.488281 -1.488281 17.679688 -2.054688 16.984375 -2.703125 C 16.285156 -3.347656 15.769531 -4.007812 15.4375 -4.6875 L 15 -4.6875 Z M 19.046875 -6.421875 C 20.203125 -6.421875 21.160156 -7.03125 21.921875 -8.25 C 22.691406 -9.476562 23.316406 -10.921875 23.796875 -12.578125 C 24.285156 -14.242188 24.632812 -15.90625 24.84375 -17.5625 C 25.0625 -19.226562 25.171875 -20.46875 25.171875 -21.28125 C 25.171875 -22.238281 25.015625 -23.03125 24.703125 -23.65625 C 24.390625 -24.28125 23.828125 -24.59375 23.015625 -24.59375 C 22.097656 -24.59375 21.226562 -24.269531 20.40625 -23.625 C 19.59375 -22.976562 18.992188 -22.414062 18.609375 -21.9375 L 15.796875 -8.734375 C 16.179688 -8.203125 16.640625 -7.679688 17.171875 -7.171875 C 17.703125 -6.671875 18.328125 -6.421875 19.046875 -6.421875 Z M 19.046875 -6.421875 "/></g></g></g><g fill="#000000" fill-opacity="0.4"><g transform="translate(303.309988, 198.685261)"><g><path d="M 19.625 -26.40625 L 20.125 -26.40625 C 21.039062 -27.320312 22.097656 -28.160156 23.296875 -28.921875 C 24.304688 -29.597656 25.507812 -30.203125 26.90625 -30.734375 C 28.300781 -31.265625 29.863281 -31.53125 31.59375 -31.53125 C 34.09375 -31.53125 36.160156 -30.890625 37.796875 -29.609375 C 39.429688 -28.335938 40.25 -26.597656 40.25 -24.390625 C 40.25 -23.710938 40.175781 -22.953125 40.03125 -22.109375 C 39.894531 -21.265625 39.726562 -20.375 39.53125 -19.4375 C 39.34375 -18.5 39.140625 -17.5625 38.921875 -16.625 C 38.703125 -15.6875 38.519531 -14.832031 38.375 -14.0625 L 35.34375 0 L 20.703125 0 L 24.671875 -18.828125 C 24.765625 -19.453125 24.882812 -20.085938 25.03125 -20.734375 C 25.175781 -21.390625 25.25 -21.984375 25.25 -22.515625 C 25.25 -23.234375 25.066406 -23.816406 24.703125 -24.265625 C 24.347656 -24.722656 23.804688 -24.953125 23.078125 -24.953125 C 22.210938 -24.953125 21.382812 -24.640625 20.59375 -24.015625 C 19.800781 -23.390625 19.1875 -22.835938 18.75 -22.359375 L 14 0 L -0.71875 0 L 9.515625 -48.484375 L 24.3125 -48.484375 Z M 19.625 -26.40625 "/></g></g></g><g fill="#000000" fill-opacity="0.4"><g transform="translate(345.580519, 198.685261)"><g><path d="M 5.1875 -28.34375 C 7.644531 -29.550781 10.160156 -30.429688 12.734375 -30.984375 C 15.304688 -31.535156 18.179688 -31.8125 21.359375 -31.8125 C 24.429688 -31.8125 26.976562 -31.570312 29 -31.09375 C 31.019531 -30.613281 32.628906 -29.914062 33.828125 -29 C 35.035156 -28.082031 35.878906 -27 36.359375 -25.75 C 36.835938 -24.5 37.078125 -23.082031 37.078125 -21.5 C 37.078125 -20.582031 37.015625 -19.59375 36.890625 -18.53125 C 36.773438 -17.476562 36.644531 -16.59375 36.5 -15.875 L 33.109375 0 L 21.5 0 L 20.203125 -4.609375 L 19.765625 -4.609375 C 18.222656 -2.929688 16.429688 -1.644531 14.390625 -0.75 C 12.347656 0.132812 10.316406 0.578125 8.296875 0.578125 C 7.140625 0.578125 6.007812 0.40625 4.90625 0.0625 C 3.800781 -0.269531 2.816406 -0.785156 1.953125 -1.484375 C 1.085938 -2.179688 0.390625 -3.066406 -0.140625 -4.140625 C -0.671875 -5.222656 -0.9375 -6.535156 -0.9375 -8.078125 C -0.9375 -10.578125 -0.253906 -12.5625 1.109375 -14.03125 C 2.484375 -15.5 4.289062 -16.601562 6.53125 -17.34375 C 8.769531 -18.09375 11.296875 -18.5625 14.109375 -18.75 C 16.921875 -18.945312 19.742188 -19.046875 22.578125 -19.046875 C 22.671875 -19.523438 22.789062 -20.207031 22.9375 -21.09375 C 23.082031 -21.988281 23.15625 -22.773438 23.15625 -23.453125 C 23.15625 -24.316406 22.925781 -25.117188 22.46875 -25.859375 C 22.007812 -26.609375 21.0625 -26.984375 19.625 -26.984375 C 17.9375 -26.984375 16.695312 -26.488281 15.90625 -25.5 C 15.113281 -24.507812 14.597656 -23.320312 14.359375 -21.9375 L 3.828125 -21.9375 Z M 21.78125 -15.65625 L 20.484375 -15.65625 C 19.085938 -15.65625 17.894531 -15.472656 16.90625 -15.109375 C 15.925781 -14.753906 15.132812 -14.285156 14.53125 -13.703125 C 13.9375 -13.128906 13.492188 -12.476562 13.203125 -11.75 C 12.910156 -11.03125 12.765625 -10.3125 12.765625 -9.59375 C 12.765625 -8.4375 13.066406 -7.566406 13.671875 -6.984375 C 14.273438 -6.410156 14.984375 -6.125 15.796875 -6.125 C 16.804688 -6.125 17.800781 -6.484375 18.78125 -7.203125 C 19.769531 -7.929688 20.382812 -8.894531 20.625 -10.09375 Z M 21.78125 -15.65625 "/></g></g></g><g fill="#09b3e4" fill-opacity="1"><g transform="translate(193.435777, 195.497247)"><g><path d="M 39.96875 0 L 23.078125 0 L 22.078125 -11.46875 L 8.734375 -11.46875 L 3.609375 0 L -3.390625 0 L 17.890625 -45.8125 L 34.984375 -45.8125 Z M 11.109375 -16.734375 L 21.5625 -16.734375 L 19.90625 -36.359375 Z M 11.109375 -16.734375 "/></g></g></g><g fill="#09b3e4" fill-opacity="1"><g transform="translate(236.860454, 195.497247)"><g><path d="M 14 0 L -0.71875 0 L 9.515625 -48.484375 L 24.3125 -48.484375 Z M 14 0 "/></g></g></g><g fill="#09b3e4" fill-opacity="1"><g transform="translate(257.995715, 195.497247)"><g><path d="M 11.390625 12.125 L -3.3125 12.125 L 5.765625 -31.015625 L 17.53125 -31.015625 L 18.828125 -26.40625 L 19.265625 -26.40625 C 20.992188 -28.226562 22.925781 -29.535156 25.0625 -30.328125 C 27.207031 -31.128906 29.3125 -31.53125 31.375 -31.53125 C 33.0625 -31.53125 34.46875 -31.273438 35.59375 -30.765625 C 36.726562 -30.265625 37.628906 -29.578125 38.296875 -28.703125 C 38.972656 -27.835938 39.457031 -26.804688 39.75 -25.609375 C 40.039062 -24.410156 40.1875 -23.132812 40.1875 -21.78125 C 40.1875 -21.113281 40.132812 -20.101562 40.03125 -18.75 C 39.9375 -17.40625 39.722656 -15.90625 39.390625 -14.25 C 39.054688 -12.59375 38.578125 -10.882812 37.953125 -9.125 C 37.328125 -7.375 36.492188 -5.773438 35.453125 -4.328125 C 34.421875 -2.890625 33.125 -1.710938 31.5625 -0.796875 C 30 0.117188 28.132812 0.578125 25.96875 0.578125 C 24.769531 0.578125 23.601562 0.429688 22.46875 0.140625 C 21.34375 -0.140625 20.320312 -0.519531 19.40625 -1 C 18.488281 -1.488281 17.679688 -2.054688 16.984375 -2.703125 C 16.285156 -3.347656 15.769531 -4.007812 15.4375 -4.6875 L 15 -4.6875 Z M 19.046875 -6.421875 C 20.203125 -6.421875 21.160156 -7.03125 21.921875 -8.25 C 22.691406 -9.476562 23.316406 -10.921875 23.796875 -12.578125 C 24.285156 -14.242188 24.632812 -15.90625 24.84375 -17.5625 C 25.0625 -19.226562 25.171875 -20.46875 25.171875 -21.28125 C 25.171875 -22.238281 25.015625 -23.03125 24.703125 -23.65625 C 24.390625 -24.28125 23.828125 -24.59375 23.015625 -24.59375 C 22.097656 -24.59375 21.226562 -24.269531 20.40625 -23.625 C 19.59375 -22.976562 18.992188 -22.414062 18.609375 -21.9375 L 15.796875 -8.734375 C 16.179688 -8.203125 16.640625 -7.679688 17.171875 -7.171875 C 17.703125 -6.671875 18.328125 -6.421875 19.046875 -6.421875 Z M 19.046875 -6.421875 "/></g></g></g><g fill="#09b3e4" fill-opacity="1"><g transform="translate(300.121975, 195.497247)"><g><path d="M 19.625 -26.40625 L 20.125 -26.40625 C 21.039062 -27.320312 22.097656 -28.160156 23.296875 -28.921875 C 24.304688 -29.597656 25.507812 -30.203125 26.90625 -30.734375 C 28.300781 -31.265625 29.863281 -31.53125 31.59375 -31.53125 C 34.09375 -31.53125 36.160156 -30.890625 37.796875 -29.609375 C 39.429688 -28.335938 40.25 -26.597656 40.25 -24.390625 C 40.25 -23.710938 40.175781 -22.953125 40.03125 -22.109375 C 39.894531 -21.265625 39.726562 -20.375 39.53125 -19.4375 C 39.34375 -18.5 39.140625 -17.5625 38.921875 -16.625 C 38.703125 -15.6875 38.519531 -14.832031 38.375 -14.0625 L 35.34375 0 L 20.703125 0 L 24.671875 -18.828125 C 24.765625 -19.453125 24.882812 -20.085938 25.03125 -20.734375 C 25.175781 -21.390625 25.25 -21.984375 25.25 -22.515625 C 25.25 -23.234375 25.066406 -23.816406 24.703125 -24.265625 C 24.347656 -24.722656 23.804688 -24.953125 23.078125 -24.953125 C 22.210938 -24.953125 21.382812 -24.640625 20.59375 -24.015625 C 19.800781 -23.390625 19.1875 -22.835938 18.75 -22.359375 L 14 0 L -0.71875 0 L 9.515625 -48.484375 L 24.3125 -48.484375 Z M 19.625 -26.40625 "/></g></g></g><g fill="#09b3e4" fill-opacity="1"><g transform="translate(342.392506, 195.497247)"><g><path d="M 5.1875 -28.34375 C 7.644531 -29.550781 10.160156 -30.429688 12.734375 -30.984375 C 15.304688 -31.535156 18.179688 -31.8125 21.359375 -31.8125 C 24.429688 -31.8125 26.976562 -31.570312 29 -31.09375 C 31.019531 -30.613281 32.628906 -29.914062 33.828125 -29 C 35.035156 -28.082031 35.878906 -27 36.359375 -25.75 C 36.835938 -24.5 37.078125 -23.082031 37.078125 -21.5 C 37.078125 -20.582031 37.015625 -19.59375 36.890625 -18.53125 C 36.773438 -17.476562 36.644531 -16.59375 36.5 -15.875 L 33.109375 0 L 21.5 0 L 20.203125 -4.609375 L 19.765625 -4.609375 C 18.222656 -2.929688 16.429688 -1.644531 14.390625 -0.75 C 12.347656 0.132812 10.316406 0.578125 8.296875 0.578125 C 7.140625 0.578125 6.007812 0.40625 4.90625 0.0625 C 3.800781 -0.269531 2.816406 -0.785156 1.953125 -1.484375 C 1.085938 -2.179688 0.390625 -3.066406 -0.140625 -4.140625 C -0.671875 -5.222656 -0.9375 -6.535156 -0.9375 -8.078125 C -0.9375 -10.578125 -0.253906 -12.5625 1.109375 -14.03125 C 2.484375 -15.5 4.289062 -16.601562 6.53125 -17.34375 C 8.769531 -18.09375 11.296875 -18.5625 14.109375 -18.75 C 16.921875 -18.945312 19.742188 -19.046875 22.578125 -19.046875 C 22.671875 -19.523438 22.789062 -20.207031 22.9375 -21.09375 C 23.082031 -21.988281 23.15625 -22.773438 23.15625 -23.453125 C 23.15625 -24.316406 22.925781 -25.117188 22.46875 -25.859375 C 22.007812 -26.609375 21.0625 -26.984375 19.625 -26.984375 C 17.9375 -26.984375 16.695312 -26.488281 15.90625 -25.5 C 15.113281 -24.507812 14.597656 -23.320312 14.359375 -21.9375 L 3.828125 -21.9375 Z M 21.78125 -15.65625 L 20.484375 -15.65625 C 19.085938 -15.65625 17.894531 -15.472656 16.90625 -15.109375 C 15.925781 -14.753906 15.132812 -14.285156 14.53125 -13.703125 C 13.9375 -13.128906 13.492188 -12.476562 13.203125 -11.75 C 12.910156 -11.03125 12.765625 -10.3125 12.765625 -9.59375 C 12.765625 -8.4375 13.066406 -7.566406 13.671875 -6.984375 C 14.273438 -6.410156 14.984375 -6.125 15.796875 -6.125 C 16.804688 -6.125 17.800781 -6.484375 18.78125 -7.203125 C 19.769531 -7.929688 20.382812 -8.894531 20.625 -10.09375 Z M 21.78125 -15.65625 "/></g></g></g><g fill="#000000" fill-opacity="0.4"><g transform="translate(408.040614, 198.685261)"><g><path d="M 5.625 -45.8125 L 23.234375 -45.8125 L 24.453125 -14.578125 L 36.5 -45.8125 L 50.78125 -45.8125 L 52.65625 -14.578125 L 64.78125 -45.8125 L 72.359375 -45.8125 L 54.53125 0 L 38.3125 0 L 36.796875 -25.90625 L 25.96875 0 L 8.65625 0 Z M 5.625 -45.8125 "/></g></g></g><g fill="#000000" fill-opacity="0.4"><g transform="translate(476.135119, 198.685261)"><g><path d="M 15.734375 -14.5 C 15.535156 -13.4375 15.398438 -12.425781 15.328125 -11.46875 C 15.253906 -10.507812 15.21875 -9.644531 15.21875 -8.875 C 15.21875 -8.4375 15.238281 -7.953125 15.28125 -7.421875 C 15.332031 -6.898438 15.441406 -6.410156 15.609375 -5.953125 C 15.785156 -5.492188 16.03125 -5.109375 16.34375 -4.796875 C 16.65625 -4.484375 17.097656 -4.328125 17.671875 -4.328125 C 18.109375 -4.328125 18.601562 -4.46875 19.15625 -4.75 C 19.707031 -5.039062 20.257812 -5.453125 20.8125 -5.984375 C 21.363281 -6.515625 21.890625 -7.164062 22.390625 -7.9375 C 22.898438 -8.707031 23.300781 -9.570312 23.59375 -10.53125 L 35.421875 -10.53125 L 33.546875 -2.8125 C 32.585938 -2.1875 31.476562 -1.65625 30.21875 -1.21875 C 28.96875 -0.789062 27.644531 -0.441406 26.25 -0.171875 C 24.863281 0.0859375 23.445312 0.273438 22 0.390625 C 20.5625 0.515625 19.191406 0.578125 17.890625 0.578125 C 15.484375 0.578125 13.242188 0.363281 11.171875 -0.0625 C 9.109375 -0.5 7.304688 -1.242188 5.765625 -2.296875 C 4.234375 -3.359375 3.019531 -4.765625 2.125 -6.515625 C 1.238281 -8.273438 0.796875 -10.457031 0.796875 -13.0625 C 0.796875 -15.414062 1.164062 -17.722656 1.90625 -19.984375 C 2.65625 -22.242188 3.90625 -24.25 5.65625 -26 C 7.414062 -27.757812 9.773438 -29.164062 12.734375 -30.21875 C 15.691406 -31.28125 19.382812 -31.8125 23.8125 -31.8125 C 28.613281 -31.8125 32.226562 -31.066406 34.65625 -29.578125 C 37.09375 -28.085938 38.3125 -25.753906 38.3125 -22.578125 C 38.3125 -21.273438 38.117188 -19.867188 37.734375 -18.359375 C 37.347656 -16.847656 36.769531 -15.5625 36 -14.5 Z M 25.328125 -23.078125 C 25.328125 -24.578125 25.082031 -25.585938 24.59375 -26.109375 C 24.113281 -26.640625 23.539062 -26.90625 22.875 -26.90625 C 22.101562 -26.90625 21.390625 -26.648438 20.734375 -26.140625 C 20.085938 -25.640625 19.5 -24.96875 18.96875 -24.125 C 18.4375 -23.289062 17.953125 -22.332031 17.515625 -21.25 C 17.085938 -20.164062 16.734375 -19.019531 16.453125 -17.8125 L 24.671875 -17.8125 C 24.765625 -18.394531 24.859375 -19 24.953125 -19.625 C 25.054688 -20.15625 25.144531 -20.734375 25.21875 -21.359375 C 25.289062 -21.984375 25.328125 -22.554688 25.328125 -23.078125 Z M 25.328125 -23.078125 "/></g></g></g><g fill="#000000" fill-opacity="0.4"><g transform="translate(515.592424, 198.685261)"><g><path d="M 10.96875 0 L -0.71875 0 L 9.515625 -48.484375 L 24.3125 -48.484375 L 19.625 -26.40625 L 20.125 -26.40625 C 21.71875 -28.226562 23.507812 -29.535156 25.5 -30.328125 C 27.5 -31.128906 29.484375 -31.53125 31.453125 -31.53125 C 33.140625 -31.53125 34.546875 -31.273438 35.671875 -30.765625 C 36.804688 -30.265625 37.707031 -29.578125 38.375 -28.703125 C 39.050781 -27.835938 39.53125 -26.804688 39.8125 -25.609375 C 40.101562 -24.410156 40.25 -23.132812 40.25 -21.78125 C 40.25 -21.113281 40.203125 -20.101562 40.109375 -18.75 C 40.015625 -17.40625 39.796875 -15.90625 39.453125 -14.25 C 39.117188 -12.59375 38.640625 -10.882812 38.015625 -9.125 C 37.390625 -7.375 36.5625 -5.773438 35.53125 -4.328125 C 34.5 -2.890625 33.203125 -1.710938 31.640625 -0.796875 C 30.078125 0.117188 28.210938 0.578125 26.046875 0.578125 C 24.742188 0.578125 23.476562 0.429688 22.25 0.140625 C 21.03125 -0.140625 19.925781 -0.519531 18.9375 -1 C 17.945312 -1.488281 17.078125 -2.054688 16.328125 -2.703125 C 15.585938 -3.347656 15.050781 -4.007812 14.71875 -4.6875 L 14.21875 -4.6875 Z M 19.125 -6.421875 C 20.269531 -6.421875 21.226562 -7.03125 22 -8.25 C 22.769531 -9.476562 23.394531 -10.921875 23.875 -12.578125 C 24.351562 -14.242188 24.703125 -15.90625 24.921875 -17.5625 C 25.140625 -19.226562 25.25 -20.46875 25.25 -21.28125 C 25.25 -22.238281 25.09375 -23.03125 24.78125 -23.65625 C 24.46875 -24.28125 23.898438 -24.59375 23.078125 -24.59375 C 22.117188 -24.59375 21.226562 -24.242188 20.40625 -23.546875 C 19.59375 -22.859375 18.992188 -22.269531 18.609375 -21.78125 L 15.796875 -8.875 C 16.128906 -8.289062 16.570312 -7.734375 17.125 -7.203125 C 17.6875 -6.679688 18.351562 -6.421875 19.125 -6.421875 Z M 19.125 -6.421875 "/></g></g></g><g fill="#f57d11" fill-opacity="1"><g transform="translate(404.852598, 195.497247)"><g><path d="M 5.625 -45.8125 L 23.234375 -45.8125 L 24.453125 -14.578125 L 36.5 -45.8125 L 50.78125 -45.8125 L 52.65625 -14.578125 L 64.78125 -45.8125 L 72.359375 -45.8125 L 54.53125 0 L 38.3125 0 L 36.796875 -25.90625 L 25.96875 0 L 8.65625 0 Z M 5.625 -45.8125 "/></g></g></g><g fill="#f57d11" fill-opacity="1"><g transform="translate(472.947103, 195.497247)"><g><path d="M 15.734375 -14.5 C 15.535156 -13.4375 15.398438 -12.425781 15.328125 -11.46875 C 15.253906 -10.507812 15.21875 -9.644531 15.21875 -8.875 C 15.21875 -8.4375 15.238281 -7.953125 15.28125 -7.421875 C 15.332031 -6.898438 15.441406 -6.410156 15.609375 -5.953125 C 15.785156 -5.492188 16.03125 -5.109375 16.34375 -4.796875 C 16.65625 -4.484375 17.097656 -4.328125 17.671875 -4.328125 C 18.109375 -4.328125 18.601562 -4.46875 19.15625 -4.75 C 19.707031 -5.039062 20.257812 -5.453125 20.8125 -5.984375 C 21.363281 -6.515625 21.890625 -7.164062 22.390625 -7.9375 C 22.898438 -8.707031 23.300781 -9.570312 23.59375 -10.53125 L 35.421875 -10.53125 L 33.546875 -2.8125 C 32.585938 -2.1875 31.476562 -1.65625 30.21875 -1.21875 C 28.96875 -0.789062 27.644531 -0.441406 26.25 -0.171875 C 24.863281 0.0859375 23.445312 0.273438 22 0.390625 C 20.5625 0.515625 19.191406 0.578125 17.890625 0.578125 C 15.484375 0.578125 13.242188 0.363281 11.171875 -0.0625 C 9.109375 -0.5 7.304688 -1.242188 5.765625 -2.296875 C 4.234375 -3.359375 3.019531 -4.765625 2.125 -6.515625 C 1.238281 -8.273438 0.796875 -10.457031 0.796875 -13.0625 C 0.796875 -15.414062 1.164062 -17.722656 1.90625 -19.984375 C 2.65625 -22.242188 3.90625 -24.25 5.65625 -26 C 7.414062 -27.757812 9.773438 -29.164062 12.734375 -30.21875 C 15.691406 -31.28125 19.382812 -31.8125 23.8125 -31.8125 C 28.613281 -31.8125 32.226562 -31.066406 34.65625 -29.578125 C 37.09375 -28.085938 38.3125 -25.753906 38.3125 -22.578125 C 38.3125 -21.273438 38.117188 -19.867188 37.734375 -18.359375 C 37.347656 -16.847656 36.769531 -15.5625 36 -14.5 Z M 25.328125 -23.078125 C 25.328125 -24.578125 25.082031 -25.585938 24.59375 -26.109375 C 24.113281 -26.640625 23.539062 -26.90625 22.875 -26.90625 C 22.101562 -26.90625 21.390625 -26.648438 20.734375 -26.140625 C 20.085938 -25.640625 19.5 -24.96875 18.96875 -24.125 C 18.4375 -23.289062 17.953125 -22.332031 17.515625 -21.25 C 17.085938 -20.164062 16.734375 -19.019531 16.453125 -17.8125 L 24.671875 -17.8125 C 24.765625 -18.394531 24.859375 -19 24.953125 -19.625 C 25.054688 -20.15625 25.144531 -20.734375 25.21875 -21.359375 C 25.289062 -21.984375 25.328125 -22.554688 25.328125 -23.078125 Z M 25.328125 -23.078125 "/></g></g></g><g fill="#f57d11" fill-opacity="1"><g transform="translate(512.404408, 195.497247)"><g><path d="M 10.96875 0 L -0.71875 0 L 9.515625 -48.484375 L 24.3125 -48.484375 L 19.625 -26.40625 L 20.125 -26.40625 C 21.71875 -28.226562 23.507812 -29.535156 25.5 -30.328125 C 27.5 -31.128906 29.484375 -31.53125 31.453125 -31.53125 C 33.140625 -31.53125 34.546875 -31.273438 35.671875 -30.765625 C 36.804688 -30.265625 37.707031 -29.578125 38.375 -28.703125 C 39.050781 -27.835938 39.53125 -26.804688 39.8125 -25.609375 C 40.101562 -24.410156 40.25 -23.132812 40.25 -21.78125 C 40.25 -21.113281 40.203125 -20.101562 40.109375 -18.75 C 40.015625 -17.40625 39.796875 -15.90625 39.453125 -14.25 C 39.117188 -12.59375 38.640625 -10.882812 38.015625 -9.125 C 37.390625 -7.375 36.5625 -5.773438 35.53125 -4.328125 C 34.5 -2.890625 33.203125 -1.710938 31.640625 -0.796875 C 30.078125 0.117188 28.210938 0.578125 26.046875 0.578125 C 24.742188 0.578125 23.476562 0.429688 22.25 0.140625 C 21.03125 -0.140625 19.925781 -0.519531 18.9375 -1 C 17.945312 -1.488281 17.078125 -2.054688 16.328125 -2.703125 C 15.585938 -3.347656 15.050781 -4.007812 14.71875 -4.6875 L 14.21875 -4.6875 Z M 19.125 -6.421875 C 20.269531 -6.421875 21.226562 -7.03125 22 -8.25 C 22.769531 -9.476562 23.394531 -10.921875 23.875 -12.578125 C 24.351562 -14.242188 24.703125 -15.90625 24.921875 -17.5625 C 25.140625 -19.226562 25.25 -20.46875 25.25 -21.28125 C 25.25 -22.238281 25.09375 -23.03125 24.78125 -23.65625 C 24.46875 -24.28125 23.898438 -24.59375 23.078125 -24.59375 C 22.117188 -24.59375 21.226562 -24.242188 20.40625 -23.546875 C 19.59375 -22.859375 18.992188 -22.269531 18.609375 -21.78125 L 15.796875 -8.875 C 16.128906 -8.289062 16.570312 -7.734375 17.125 -7.203125 C 17.6875 -6.679688 18.351562 -6.421875 19.125 -6.421875 Z M 19.125 -6.421875 "/></g></g></g><g clip-path="url(#c0c2ff85e9)"><path fill="#383f84" d="M 140.019531 173.941406 C 139.917969 173.300781 139.917969 173.296875 140.617188 173.289062 C 143.597656 173.242188 146.582031 173.207031 149.5625 173.148438 C 153.359375 173.074219 157.152344 172.980469 160.949219 172.894531 C 164.507812 172.8125 168.066406 172.734375 171.625 172.648438 C 176.75 172.523438 181.875 172.398438 187 172.265625 C 187.941406 172.238281 188.882812 172.171875 189.828125 172.148438 C 190.742188 172.125 191.300781 172.722656 191.839844 173.320312 C 191.925781 173.417969 191.949219 173.589844 191.953125 173.730469 C 192.011719 177.035156 192.0625 180.339844 192.117188 183.648438 C 192.128906 184.332031 192.128906 184.324219 191.410156 184.335938 C 186.972656 184.421875 182.53125 184.503906 178.09375 184.59375 C 174.167969 184.671875 170.246094 184.753906 166.320312 184.839844 C 162.503906 184.925781 158.6875 185.003906 154.871094 185.097656 C 151.996094 185.171875 149.125 185.253906 146.253906 185.34375 C 144.648438 185.398438 143.039062 185.472656 141.4375 185.558594 C 140.203125 185.625 139.203125 184.746094 139.195312 183.558594 C 139.1875 180.609375 139.171875 177.65625 139.160156 174.703125 C 139.160156 174.558594 139.164062 174.410156 139.171875 174.265625 C 139.203125 173.539062 139.257812 173.511719 140.015625 173.910156 C 140.09375 173.9375 140.109375 173.925781 140.121094 173.914062 C 140.085938 173.921875 140.050781 173.933594 140.019531 173.941406 Z M 140.933594 182.671875 C 140.988281 184.179688 140.988281 184.179688 142.566406 184.078125 C 142.984375 184.074219 143.402344 184.070312 143.9375 184.070312 C 144.175781 184.074219 144.410156 184.085938 144.644531 184.082031 C 148.160156 184.03125 151.679688 183.980469 155.316406 183.945312 C 155.738281 183.90625 156.164062 183.851562 156.585938 183.839844 C 158.429688 183.789062 160.269531 183.753906 162.109375 183.707031 C 163.648438 183.671875 165.191406 183.625 166.730469 183.585938 C 168.398438 183.542969 170.066406 183.5 171.738281 183.457031 C 173.339844 183.417969 174.945312 183.367188 176.550781 183.335938 C 178.886719 183.285156 181.21875 183.246094 183.554688 183.203125 C 185.632812 183.164062 187.707031 183.109375 189.785156 183.085938 C 190.191406 183.082031 190.292969 182.9375 190.285156 182.566406 C 190.230469 179.871094 190.191406 177.175781 190.140625 174.480469 C 190.136719 174.339844 190.066406 174.199219 190.039062 173.945312 C 190.074219 173.539062 189.765625 173.660156 189.558594 173.660156 C 188.109375 173.667969 186.65625 173.679688 185.109375 173.675781 C 184.992188 173.695312 184.875 173.71875 184.636719 173.761719 C 179.316406 173.859375 173.992188 173.953125 168.550781 174.042969 C 168.105469 174.078125 167.664062 174.136719 167.21875 174.148438 C 165.445312 174.199219 163.671875 174.238281 161.898438 174.277344 C 160.148438 174.320312 158.398438 174.363281 156.644531 174.402344 C 154.875 174.445312 153.101562 174.488281 151.328125 174.527344 C 149.46875 174.570312 147.609375 174.625 145.753906 174.652344 C 144.296875 174.671875 142.839844 174.660156 141.292969 174.640625 C 141.238281 174.609375 141.179688 174.582031 141.128906 174.550781 C 140.882812 174.402344 140.636719 174.25 140.394531 174.101562 C 140.453125 174.367188 140.511719 174.628906 140.566406 175.011719 C 140.609375 176.070312 140.648438 177.132812 140.703125 178.195312 C 140.75 179.210938 140.816406 180.230469 140.890625 181.292969 C 140.894531 181.324219 140.878906 181.351562 140.839844 181.488281 C 140.863281 181.84375 140.886719 182.199219 140.933594 182.671875 Z M 140.933594 182.671875 " fill-opacity="1" fill-rule="nonzero"/></g><path fill="#404ba6" d="M 143.824219 184.066406 C 143.402344 184.070312 142.984375 184.074219 142.480469 184.042969 C 142.269531 183.925781 142.148438 183.84375 142.019531 183.769531 C 141.355469 183.390625 140.984375 182.871094 141.109375 182.078125 C 141.140625 181.859375 141.09375 181.621094 141.058594 181.398438 C 141.046875 181.339844 140.9375 181.296875 140.871094 181.25 C 140.8125 180.230469 140.75 179.210938 140.703125 178.191406 C 140.648438 177.132812 140.609375 176.070312 140.617188 174.953125 C 140.910156 174.816406 141.148438 174.738281 141.386719 174.65625 C 142.839844 174.65625 144.296875 174.667969 145.753906 174.648438 C 147.613281 174.621094 149.46875 174.570312 151.328125 174.523438 C 153.101562 174.484375 154.875 174.441406 156.648438 174.398438 C 158.398438 174.359375 160.148438 174.316406 161.902344 174.273438 C 163.671875 174.230469 165.445312 174.195312 167.21875 174.144531 C 167.664062 174.132812 168.109375 174.074219 168.652344 174.070312 C 169.933594 174.117188 171.109375 174.15625 172.289062 174.148438 C 175.953125 174.117188 179.617188 174.078125 183.28125 174.019531 C 184.003906 174.007812 184.730469 173.9375 185.449219 173.832031 C 186.464844 173.6875 187.449219 173.6875 188.367188 174.207031 C 188.632812 174.355469 188.871094 174.597656 188.925781 174.035156 C 188.933594 173.933594 189.273438 173.789062 189.457031 173.796875 C 189.648438 173.804688 189.839844 173.964844 190.03125 174.054688 C 190.066406 174.195312 190.136719 174.332031 190.140625 174.472656 C 190.191406 177.167969 190.230469 179.867188 190.285156 182.5625 C 190.292969 182.929688 190.191406 183.078125 189.785156 183.082031 C 187.707031 183.105469 185.632812 183.160156 183.554688 183.199219 C 181.21875 183.242188 178.886719 183.28125 176.550781 183.328125 C 174.945312 183.363281 173.339844 183.410156 171.738281 183.453125 C 170.066406 183.496094 168.398438 183.535156 166.730469 183.582031 C 165.191406 183.621094 163.648438 183.664062 162.109375 183.703125 C 160.269531 183.75 158.425781 183.785156 156.585938 183.835938 C 156.164062 183.847656 155.738281 183.902344 155.210938 183.914062 C 153.078125 183.785156 151.046875 183.648438 149.015625 183.585938 C 147.269531 183.539062 145.523438 183.613281 143.824219 184.066406 Z M 141.195312 176.601562 C 141.167969 176.601562 141.140625 176.605469 141.113281 176.605469 C 141.117188 176.625 141.117188 176.652344 141.125 176.65625 C 141.152344 176.660156 141.183594 176.65625 141.167969 176.75 C 141.363281 177.253906 141.535156 177.769531 141.765625 178.257812 C 141.828125 178.390625 142.066406 178.519531 142.230469 178.523438 C 142.609375 178.53125 142.988281 178.464844 143.367188 178.425781 C 143.445312 178.417969 143.527344 178.402344 143.609375 178.390625 C 143.550781 178.3125 143.507812 178.214844 143.433594 178.164062 C 142.695312 177.660156 141.949219 177.167969 141.195312 176.601562 Z M 150.679688 179.433594 C 149.886719 179.476562 149.09375 179.492188 148.304688 179.5625 C 146.5 179.726562 144.699219 179.910156 142.898438 180.097656 C 142.761719 180.109375 142.507812 180.21875 142.515625 180.253906 C 142.582031 180.644531 142.65625 181.039062 142.800781 181.402344 C 142.828125 181.472656 143.191406 181.445312 143.386719 181.410156 C 146.589844 180.839844 149.792969 180.257812 152.996094 179.679688 C 153.058594 179.667969 153.121094 179.652344 153.183594 179.640625 C 153.117188 179.609375 153.050781 179.5625 152.980469 179.558594 C 152.253906 179.511719 151.53125 179.472656 150.679688 179.433594 Z M 168.960938 176.417969 C 164.761719 176.445312 160.5625 176.292969 156.371094 176.664062 C 154.753906 176.804688 153.136719 176.929688 151.523438 177.0625 C 151.457031 177.070312 151.390625 177.085938 151.324219 177.097656 C 151.386719 177.117188 151.445312 177.148438 151.507812 177.152344 C 152.105469 177.203125 152.707031 177.316406 153.300781 177.285156 C 155.964844 177.148438 158.628906 176.886719 161.300781 176.824219 C 164.9375 176.738281 168.578125 176.789062 172.21875 176.789062 C 173.121094 176.785156 174.019531 176.808594 174.921875 176.8125 C 175 176.8125 175.082031 176.769531 175.160156 176.746094 C 175.082031 176.71875 175.003906 176.679688 174.925781 176.675781 C 172.980469 176.585938 171.035156 176.503906 168.960938 176.417969 Z M 154.53125 181.445312 C 155.738281 181.320312 156.945312 181.183594 158.15625 181.074219 C 159.726562 180.929688 161.300781 180.8125 162.875 180.679688 C 162.9375 180.675781 162.996094 180.652344 163.058594 180.636719 C 162.996094 180.617188 162.933594 180.574219 162.871094 180.578125 C 161.066406 180.636719 159.273438 180.210938 157.449219 180.539062 C 155.109375 180.964844 152.742188 181.253906 150.386719 181.609375 C 150.160156 181.644531 149.941406 181.714844 149.722656 181.769531 C 149.96875 181.785156 150.21875 181.828125 150.460938 181.808594 C 151.78125 181.695312 153.097656 181.566406 154.53125 181.445312 Z M 184.414062 181.820312 C 184.5625 181.824219 184.714844 181.820312 184.863281 181.824219 C 186 181.863281 187.136719 181.902344 188.269531 181.9375 C 188.355469 181.941406 188.441406 181.925781 188.523438 181.917969 C 188.457031 181.890625 188.394531 181.84375 188.324219 181.835938 C 187.121094 181.660156 185.917969 181.363281 184.710938 181.34375 C 181.949219 181.304688 179.183594 181.402344 176.421875 181.449219 C 176.324219 181.449219 176.226562 181.488281 176.128906 181.511719 C 176.234375 181.527344 176.335938 181.5625 176.441406 181.566406 C 179.054688 181.65625 181.667969 181.738281 184.414062 181.820312 Z M 188.75 180.324219 C 188.738281 180.09375 188.71875 179.863281 188.726562 179.632812 C 188.730469 179.410156 188.664062 179.363281 188.429688 179.414062 C 187.289062 179.675781 186.144531 179.910156 185.003906 180.160156 C 184.882812 180.1875 184.761719 180.238281 184.640625 180.28125 C 184.757812 180.328125 184.871094 180.398438 184.992188 180.417969 C 186.085938 180.59375 187.183594 180.75 188.277344 180.9375 C 188.75 181.019531 188.835938 180.816406 188.75 180.324219 Z M 161.539062 182.199219 C 160.96875 182.265625 160.398438 182.332031 159.832031 182.394531 C 160.402344 182.429688 160.972656 182.460938 161.539062 182.492188 C 161.605469 182.496094 161.667969 182.488281 161.730469 182.488281 C 161.699219 182.394531 161.667969 182.300781 161.539062 182.199219 Z M 188.175781 176.429688 C 188.160156 176.449219 188.136719 176.46875 188.125 176.492188 C 188.125 176.496094 188.148438 176.523438 188.164062 176.527344 C 188.335938 176.566406 188.503906 176.601562 188.675781 176.636719 C 188.675781 176.636719 188.703125 176.53125 188.699219 176.53125 C 188.554688 176.492188 188.410156 176.457031 188.175781 176.429688 Z M 188.175781 176.429688 " fill-opacity="1" fill-rule="nonzero"/><path fill="#404ba6" d="M 140.84375 181.429688 C 140.875 181.730469 140.902344 182.089844 140.921875 182.5 C 140.886719 182.199219 140.863281 181.84375 140.84375 181.429688 Z M 140.84375 181.429688 " fill-opacity="1" fill-rule="nonzero"/><path fill="#404ba6" d="M 185.15625 173.683594 C 185.085938 173.710938 184.96875 173.734375 184.804688 173.75 C 184.875 173.71875 184.992188 173.695312 185.15625 173.683594 Z M 185.15625 173.683594 " fill-opacity="1" fill-rule="nonzero"/></svg>